<svg width="8504" height="7940" viewBox="0 0 8504 7940" fill="none" xmlns="http://www.w3.org/2000/svg">
<g clip-path="url(#clip0_442_138)">
<rect width="8503.95" height="7939.82" fill="white"/>
<rect y="4493.5" width="8503.95" height="3530.75" fill="black"/>
<path d="M6127.43 1402.47C6356.19 1224.69 6673.19 1404.43 6673.19 1676.44C6673.19 1856.43 6562.85 1950.6 6522.64 1986.79L6460.08 1917.28L6397.52 1847.77C6434.85 1814.17 6486.16 1768.78 6486.16 1676.44C6486.16 1546.75 6337.72 1475.91 6242.2 1550.15C6197.26 1585.07 6182.22 1627.17 6181.87 1667.01C6181.48 1710.69 6198.97 1749.38 6216.38 1768.53L6216.56 1768.73L6216.73 1768.93L6489.37 2072.3L6488.24 2073.32L6576.01 2170.99C6626.62 2226.89 6659.57 2311.64 6658.79 2399.58C6657.97 2491.58 6620.08 2589.51 6526.2 2662.47H6526.2C6297.44 2840.24 5980.44 2660.51 5980.44 2388.5C5980.44 2208.51 6090.78 2114.34 6131 2078.15L6193.55 2147.66L6256.11 2217.17C6218.78 2250.77 6167.47 2296.15 6167.47 2388.5C6167.47 2518.19 6315.91 2589.02 6411.44 2514.79C6456.37 2479.87 6471.41 2437.76 6471.76 2397.93C6472.15 2354.25 6454.66 2315.56 6437.25 2296.4L6437.08 2296.21L6436.9 2296.01L6164.26 1992.63L6165.39 1991.61L6077.62 1893.94C6027.02 1838.04 5994.07 1753.3 5994.84 1665.35C5995.66 1573.36 6033.55 1475.42 6127.43 1402.47H6127.43ZM3979.9 1883.97C4006.88 1853.97 4037.63 1829.53 4072.15 1810.64C4136.02 1775.16 4206.39 1757.42 4283.26 1757.42C4376.7 1757.42 4458.89 1777.52 4529.86 1817.74C4602 1857.95 4658.77 1914.13 4700.17 1986.27C4742.74 2058.42 4764.03 2143.57 4764.03 2241.73C4764.03 2339.9 4742.74 2425.05 4700.17 2497.2C4658.77 2569.34 4602 2626.11 4529.86 2667.51C4458.89 2707.72 4376.7 2727.83 4283.26 2727.83C4202.84 2727.83 4131.29 2710.08 4068.6 2674.6C4030.74 2653.17 3997.63 2625.27 3969.26 2590.89V2715.41H3758.14V1399.06H3979.9V1883.97ZM5385.92 1757.42C5478.17 1757.42 5560.37 1777.52 5632.51 1817.74C5704.66 1857.95 5761.43 1914.72 5802.82 1988.05C5844.22 2061.37 5864.92 2147.71 5864.92 2247.06C5864.92 2256.52 5864.32 2267.16 5863.14 2278.99C5863.14 2290.82 5862.55 2302.05 5861.37 2312.7H5118.06C5124.12 2345.44 5135.35 2375.6 5151.75 2403.17C5177.76 2446.93 5214.43 2480.64 5261.74 2504.29C5309.04 2527.95 5363.45 2539.78 5424.95 2539.78C5478.17 2539.78 5526.07 2531.5 5568.65 2514.94C5611.23 2498.38 5649.07 2472.36 5682.19 2436.88L5801.05 2573.48C5758.47 2623.16 5704.66 2661.59 5639.61 2688.8C5575.74 2714.82 5502.42 2727.83 5419.63 2727.83C5314.37 2727.83 5222.12 2707.13 5142.88 2665.73C5064.82 2623.16 5003.91 2565.2 4960.15 2491.88C4917.57 2418.55 4896.28 2335.17 4896.28 2241.73C4896.28 2147.12 4916.98 2063.74 4958.37 1991.59C5000.95 1918.27 5058.9 1860.9 5132.23 1819.51C5206.74 1778.12 5291.3 1757.42 5385.92 1757.42ZM2477.16 2430.86L2894.55 1473.57H3125.18L2584.09 2715.41H2357.01L1814.15 1473.57H2064.3L2477.16 2430.86ZM3467.09 2715.41H3245.33V1768.06H3467.09V2715.41ZM4258.43 1945.47C4205.2 1945.47 4157.3 1957.29 4114.73 1980.95C4072.15 2004.6 4038.44 2038.9 4013.61 2083.84C3988.77 2127.6 3976.35 2180.23 3976.35 2241.73C3976.35 2302.05 3988.77 2354.68 4013.61 2399.63C4038.44 2444.57 4072.15 2478.87 4114.73 2502.52C4157.3 2526.17 4205.2 2538 4258.43 2538C4311.65 2538 4358.96 2526.17 4400.35 2502.52C4442.93 2478.87 4476.63 2444.57 4501.47 2399.63C4526.31 2354.68 4538.73 2302.05 4538.73 2241.73C4538.73 2180.23 4526.31 2127.6 4501.47 2083.84C4476.63 2038.9 4442.93 2004.6 4400.35 1980.95C4358.96 1957.29 4311.65 1945.47 4258.43 1945.47ZM5385.92 1934.82C5331.52 1934.82 5283.62 1946.65 5242.22 1970.3C5202.01 1993.96 5170.08 2027.07 5146.42 2069.65C5131.04 2097.98 5120.93 2129.92 5116.07 2165.45H5655.19C5650.89 2129.67 5640.37 2097.15 5623.64 2067.88C5599.99 2026.48 5567.46 1993.96 5526.07 1970.3C5485.86 1946.65 5439.14 1934.82 5385.92 1934.82ZM3357.1 1345.84C3398.49 1345.84 3432.2 1358.26 3458.22 1383.09C3485.42 1406.75 3499.02 1436.91 3499.02 1473.57C3499.02 1512.6 3486.01 1545.71 3459.99 1572.92C3433.97 1598.94 3399.67 1611.95 3357.1 1611.95C3315.7 1611.95 3281.4 1598.94 3254.2 1572.92C3228.18 1546.9 3215.17 1515.56 3215.17 1478.89C3215.17 1441.05 3228.18 1409.7 3254.2 1384.87C3281.4 1358.85 3315.7 1345.84 3357.1 1345.84Z" fill="url(#paint0_linear_442_138)"/>
<path d="M6135.84 5393.44C6364.6 5215.67 6681.6 5395.4 6681.6 5667.42C6681.6 5847.41 6571.26 5941.57 6531.05 5977.76L6468.49 5908.25L6405.93 5838.74C6443.26 5805.15 6494.57 5759.76 6494.57 5667.42C6494.57 5537.73 6346.13 5466.89 6250.6 5541.12C6205.67 5576.05 6190.63 5618.15 6190.28 5657.99C6189.89 5701.67 6207.38 5740.36 6224.79 5759.51L6224.96 5759.71L6225.14 5759.9L6497.78 6063.28L6496.65 6064.3L6584.42 6161.97C6635.03 6217.87 6667.98 6302.61 6667.2 6390.56C6666.38 6482.56 6628.49 6580.49 6534.61 6653.45H6534.61C6305.85 6831.22 5988.85 6651.49 5988.85 6379.47C5988.85 6199.48 6099.19 6105.32 6139.41 6069.12L6201.96 6138.64L6264.52 6208.15C6227.19 6241.74 6175.88 6287.13 6175.88 6379.47C6175.88 6509.16 6324.32 6580 6419.85 6505.77C6464.78 6470.84 6479.82 6428.74 6480.17 6388.9C6480.56 6345.22 6463.07 6306.53 6445.66 6287.38L6445.49 6287.18L6445.31 6286.99L6172.67 5983.61L6173.8 5982.59L6086.03 5884.92C6035.42 5829.02 6002.47 5744.28 6003.25 5656.33C6004.07 5564.34 6041.96 5466.4 6135.84 5393.44H6135.84ZM3988.31 5874.95C4015.29 5844.95 4046.04 5820.5 4080.56 5801.62C4144.43 5766.14 4214.8 5748.39 4291.67 5748.39C4385.11 5748.39 4467.3 5768.5 4538.27 5808.71C4610.41 5848.92 4667.18 5905.1 4708.58 5977.25C4751.15 6049.39 4772.44 6134.55 4772.44 6232.71C4772.44 6330.88 4751.15 6416.03 4708.58 6488.18C4667.18 6560.32 4610.41 6617.09 4538.27 6658.48C4467.3 6698.7 4385.11 6718.8 4291.67 6718.8C4211.25 6718.8 4139.7 6701.06 4077.01 6665.58C4039.15 6644.15 4006.03 6616.24 3977.67 6581.87V6706.38H3766.55V5390.04H3988.31V5874.95ZM5394.33 5748.39C5486.58 5748.39 5568.78 5768.5 5640.92 5808.71C5713.07 5848.92 5769.84 5905.69 5811.23 5979.02C5852.63 6052.35 5873.33 6138.69 5873.33 6238.03C5873.33 6247.5 5872.73 6258.14 5871.55 6269.97C5871.55 6281.79 5870.96 6293.03 5869.78 6303.67H5126.47C5132.53 6336.42 5143.76 6366.57 5160.16 6394.15C5186.17 6437.91 5222.84 6471.62 5270.15 6495.27C5317.45 6518.93 5371.86 6530.75 5433.36 6530.75C5486.58 6530.75 5534.48 6522.47 5577.06 6505.92C5619.64 6489.36 5657.48 6463.34 5690.6 6427.86L5809.46 6564.46C5766.88 6614.13 5713.07 6652.57 5648.02 6679.77C5584.15 6705.79 5510.83 6718.8 5428.04 6718.8C5322.78 6718.8 5230.53 6698.11 5151.29 6656.71C5073.23 6614.13 5012.32 6556.18 4968.56 6482.85C4925.98 6409.53 4904.69 6326.15 4904.69 6232.71C4904.69 6138.1 4925.39 6054.72 4966.78 5982.57C5009.36 5909.24 5067.31 5851.88 5140.64 5810.49C5215.15 5769.09 5299.71 5748.39 5394.33 5748.39ZM2485.57 6421.84L2902.96 5464.55H3133.59L2592.5 6706.38H2365.42L1822.56 5464.55H2072.71L2485.57 6421.84ZM3475.5 6706.38H3253.74V5759.04H3475.5V6706.38ZM4266.84 5936.44C4213.61 5936.44 4165.71 5948.27 4123.14 5971.93C4080.56 5995.58 4046.85 6029.88 4022.02 6074.82C3997.18 6118.58 3984.76 6171.21 3984.76 6232.71C3984.76 6293.03 3997.18 6345.66 4022.02 6390.6C4046.85 6435.55 4080.56 6469.84 4123.14 6493.5C4165.71 6517.15 4213.61 6528.98 4266.84 6528.98C4320.06 6528.98 4367.37 6517.15 4408.76 6493.5C4451.34 6469.84 4485.05 6435.55 4509.88 6390.6C4534.72 6345.66 4547.14 6293.03 4547.14 6232.71C4547.14 6171.21 4534.72 6118.58 4509.88 6074.82C4485.05 6029.88 4451.34 5995.58 4408.76 5971.93C4367.37 5948.27 4320.06 5936.44 4266.84 5936.44ZM5394.33 5925.8C5339.93 5925.8 5292.03 5937.63 5250.63 5961.28C5210.42 5984.94 5178.49 6018.05 5154.83 6060.63C5139.45 6088.96 5129.34 6120.89 5124.48 6156.43H5663.6C5659.3 6120.65 5648.78 6088.13 5632.05 6058.85C5608.4 6017.46 5575.88 5984.94 5534.48 5961.28C5494.27 5937.63 5447.55 5925.8 5394.33 5925.8ZM3365.51 5336.81C3406.9 5336.81 3440.61 5349.23 3466.63 5374.07C3493.83 5397.72 3507.43 5427.88 3507.43 5464.55C3507.43 5503.58 3494.42 5536.69 3468.4 5563.89C3442.38 5589.91 3408.08 5602.92 3365.51 5602.92C3324.11 5602.92 3289.81 5589.91 3262.61 5563.89C3236.59 5537.87 3223.58 5506.53 3223.58 5469.87C3223.58 5432.02 3236.59 5400.68 3262.61 5375.84C3289.81 5349.82 3324.11 5336.81 3365.51 5336.81Z" fill="url(#paint1_linear_442_138)"/>
<path d="M1840.98 3137.16V2949.87H1918.04C1934.63 2949.87 1948.81 2952.55 1960.58 2957.9C1972.53 2963.25 1981.71 2970.92 1988.14 2980.91C1994.56 2990.9 1997.77 3002.76 1997.77 3016.49C1997.77 3030.23 1994.56 3042.09 1988.14 3052.08C1981.71 3061.89 1972.53 3069.47 1960.58 3074.82C1948.81 3079.99 1934.63 3082.58 1918.04 3082.58H1860.25L1875.77 3066.79V3137.16H1840.98ZM1963.52 3137.16L1916.17 3069.2H1953.35L2000.98 3137.16H1963.52ZM1875.77 3070.54L1860.25 3053.95H1916.43C1931.77 3053.95 1943.28 3050.65 1950.95 3044.05C1958.79 3037.45 1962.72 3028.26 1962.72 3016.49C1962.72 3004.54 1958.79 2995.36 1950.95 2988.93C1943.28 2982.51 1931.77 2979.3 1916.43 2979.3H1860.25L1875.77 2962.18V3070.54ZM2100.62 3139.03C2084.75 3139.03 2070.84 3135.91 2058.89 3129.66C2047.12 3123.24 2037.93 3114.5 2031.33 3103.45C2024.91 3092.39 2021.7 3079.81 2021.7 3065.72C2021.7 3051.45 2024.82 3038.88 2031.06 3028C2037.48 3016.94 2046.22 3008.29 2057.28 3002.04C2068.52 2995.8 2081.27 2992.68 2095.54 2992.68C2109.45 2992.68 2121.85 2995.71 2132.73 3001.78C2143.61 3007.84 2152.17 3016.4 2158.41 3027.46C2164.66 3038.52 2167.78 3051.54 2167.78 3066.52C2167.78 3067.95 2167.69 3069.56 2167.51 3071.34C2167.51 3073.12 2167.42 3074.82 2167.24 3076.42H2048.19V3054.22H2149.59L2136.48 3061.17C2136.65 3052.97 2134.96 3045.74 2131.39 3039.5C2127.83 3033.26 2122.92 3028.35 2116.68 3024.79C2110.61 3021.22 2103.57 3019.44 2095.54 3019.44C2087.34 3019.44 2080.11 3021.22 2073.87 3024.79C2067.81 3028.35 2062.99 3033.35 2059.42 3039.77C2056.03 3046.01 2054.34 3053.41 2054.34 3061.98V3067.33C2054.34 3075.89 2056.3 3083.47 2060.23 3090.07C2064.15 3096.67 2069.68 3101.75 2076.81 3105.32C2083.95 3108.89 2092.15 3110.67 2101.43 3110.67C2109.45 3110.67 2116.68 3109.42 2123.1 3106.92C2129.52 3104.43 2135.23 3100.5 2140.22 3095.15L2158.15 3115.75C2151.73 3123.24 2143.61 3129.04 2133.8 3133.14C2124.17 3137.07 2113.11 3139.03 2100.62 3139.03ZM2260.37 3139.03C2246.64 3139.03 2234.24 3136 2223.18 3129.93C2212.3 3123.69 2203.74 3115.13 2197.5 3104.25C2191.25 3093.37 2188.13 3080.53 2188.13 3065.72C2188.13 3050.92 2191.25 3038.07 2197.5 3027.19C2203.74 3016.31 2212.3 3007.84 2223.18 3001.78C2234.24 2995.71 2246.64 2992.68 2260.37 2992.68C2272.32 2992.68 2283.02 2995.36 2292.48 3000.71C2301.93 3005.88 2309.42 3013.82 2314.95 3024.52C2320.48 3035.22 2323.24 3048.95 2323.24 3065.72C2323.24 3082.31 2320.57 3096.04 2315.22 3106.92C2309.87 3117.63 2302.46 3125.65 2293.01 3131C2283.56 3136.35 2272.68 3139.03 2260.37 3139.03ZM2264.38 3110.4C2272.41 3110.4 2279.54 3108.62 2285.79 3105.05C2292.21 3101.48 2297.29 3096.31 2301.04 3089.53C2304.96 3082.75 2306.92 3074.82 2306.92 3065.72C2306.92 3056.45 2304.96 3048.51 2301.04 3041.91C2297.29 3035.13 2292.21 3029.96 2285.79 3026.39C2279.54 3022.82 2272.41 3021.04 2264.38 3021.04C2256.36 3021.04 2249.13 3022.82 2242.71 3026.39C2236.47 3029.96 2231.39 3035.13 2227.46 3041.91C2223.72 3048.51 2221.84 3056.45 2221.84 3065.72C2221.84 3074.82 2223.72 3082.75 2227.46 3089.53C2231.39 3096.31 2236.47 3101.48 2242.71 3105.05C2249.13 3108.62 2256.36 3110.4 2264.38 3110.4ZM2307.73 3137.16V3103.45L2309.06 3065.45L2306.39 3027.46V2938.64H2339.56V3137.16H2307.73ZM2450.74 3139.03C2434.86 3139.03 2420.95 3135.91 2409 3129.66C2397.23 3123.24 2388.04 3114.5 2381.44 3103.45C2375.02 3092.39 2371.81 3079.81 2371.81 3065.72C2371.81 3051.45 2374.93 3038.88 2381.17 3028C2387.59 3016.94 2396.33 3008.29 2407.39 3002.04C2418.63 2995.8 2431.38 2992.68 2445.65 2992.68C2459.56 2992.68 2471.96 2995.71 2482.84 3001.78C2493.72 3007.84 2502.28 3016.4 2508.53 3027.46C2514.77 3038.52 2517.89 3051.54 2517.89 3066.52C2517.89 3067.95 2517.8 3069.56 2517.62 3071.34C2517.62 3073.12 2517.53 3074.82 2517.36 3076.42H2398.3V3054.22H2499.7L2486.59 3061.17C2486.77 3052.97 2485.07 3045.74 2481.5 3039.5C2477.94 3033.26 2473.03 3028.35 2466.79 3024.79C2460.72 3021.22 2453.68 3019.44 2445.65 3019.44C2437.45 3019.44 2430.22 3021.22 2423.98 3024.79C2417.92 3028.35 2413.1 3033.35 2409.53 3039.77C2406.14 3046.01 2404.45 3053.41 2404.45 3061.98V3067.33C2404.45 3075.89 2406.41 3083.47 2410.34 3090.07C2414.26 3096.67 2419.79 3101.75 2426.92 3105.32C2434.06 3108.89 2442.26 3110.67 2451.54 3110.67C2459.56 3110.67 2466.79 3109.42 2473.21 3106.92C2479.63 3104.43 2485.34 3100.5 2490.33 3095.15L2508.26 3115.75C2501.84 3123.24 2493.72 3129.04 2483.91 3133.14C2474.28 3137.07 2463.22 3139.03 2450.74 3139.03ZM2554.56 3137.16V2986.26C2554.56 2971.28 2558.93 2959.33 2567.67 2950.41C2576.59 2941.31 2589.26 2936.76 2605.66 2936.76C2611.55 2936.76 2617.08 2937.39 2622.25 2938.64C2627.6 2939.88 2632.06 2941.85 2635.63 2944.52L2626.53 2969.67C2624.04 2967.71 2621.18 2966.28 2617.97 2965.39C2614.76 2964.32 2611.46 2963.79 2608.07 2963.79C2601.12 2963.79 2595.85 2965.75 2592.29 2969.67C2588.72 2973.42 2586.94 2979.12 2586.94 2986.79V3002.85L2588.01 3017.83V3137.16H2554.56ZM2531.02 3022.11V2995.36H2626.27V3022.11H2531.02ZM2649.81 3137.16V2994.29H2683.25V3137.16H2649.81ZM2666.67 2970.74C2660.42 2970.74 2655.25 2968.78 2651.15 2964.86C2647.22 2960.93 2645.26 2956.2 2645.26 2950.68C2645.26 2944.97 2647.22 2940.24 2651.15 2936.5C2655.25 2932.57 2660.42 2930.61 2666.67 2930.61C2672.91 2930.61 2677.99 2932.48 2681.92 2936.23C2686.02 2939.8 2688.07 2944.34 2688.07 2949.87C2688.07 2955.76 2686.11 2960.75 2682.18 2964.86C2678.26 2968.78 2673.09 2970.74 2666.67 2970.74ZM2808.23 2992.68C2819.64 2992.68 2829.81 2994.91 2838.73 2999.37C2847.82 3003.83 2854.96 3010.7 2860.13 3019.97C2865.3 3029.07 2867.89 3040.84 2867.89 3055.29V3137.16H2834.45V3059.57C2834.45 3046.9 2831.41 3037.45 2825.35 3031.21C2819.46 3024.96 2811.17 3021.84 2800.47 3021.84C2792.62 3021.84 2785.66 3023.45 2779.6 3026.66C2773.54 3029.87 2768.81 3034.69 2765.42 3041.11C2762.21 3047.35 2760.6 3055.29 2760.6 3064.92V3137.16H2727.16V2994.29H2759V3032.81L2753.38 3021.04C2758.37 3011.94 2765.6 3004.99 2775.05 3000.17C2784.68 2995.18 2795.74 2992.68 2808.23 2992.68ZM2910.32 3137.16V2994.29H2943.76V3137.16H2910.32ZM2927.17 2970.74C2920.93 2970.74 2915.76 2968.78 2911.65 2964.86C2907.73 2960.93 2905.77 2956.2 2905.77 2950.68C2905.77 2944.97 2907.73 2940.24 2911.65 2936.5C2915.76 2932.57 2920.93 2930.61 2927.17 2930.61C2933.41 2930.61 2938.5 2932.48 2942.42 2936.23C2946.52 2939.8 2948.57 2944.34 2948.57 2949.87C2948.57 2955.76 2946.61 2960.75 2942.69 2964.86C2938.76 2968.78 2933.59 2970.74 2927.17 2970.74ZM3068.72 2992.68C3080.14 2992.68 3090.3 2994.91 3099.22 2999.37C3108.32 3003.83 3115.45 3010.7 3120.62 3019.97C3125.8 3029.07 3128.38 3040.84 3128.38 3055.29V3137.16H3094.94V3059.57C3094.94 3046.9 3091.91 3037.45 3085.84 3031.21C3079.96 3024.96 3071.66 3021.84 3060.96 3021.84C3053.11 3021.84 3046.16 3023.45 3040.09 3026.66C3034.03 3029.87 3029.3 3034.69 3025.91 3041.11C3022.7 3047.35 3021.1 3055.29 3021.1 3064.92V3137.16H2987.65V2994.29H3019.49V3032.81L3013.87 3021.04C3018.87 3011.94 3026.09 3004.99 3035.54 3000.17C3045.18 2995.18 3056.23 2992.68 3068.72 2992.68ZM3235.82 3190.93C3222.62 3190.93 3209.69 3189.15 3197.02 3185.58C3184.54 3182.19 3174.28 3177.2 3166.25 3170.6L3181.24 3145.45C3187.48 3150.62 3195.33 3154.73 3204.78 3157.76C3214.41 3160.97 3224.13 3162.57 3233.94 3162.57C3249.64 3162.57 3261.14 3158.92 3268.46 3151.6C3275.77 3144.47 3279.43 3133.68 3279.43 3119.23V3093.81L3282.1 3061.44L3281.03 3029.07V2994.29H3312.87V3115.48C3312.87 3141.35 3306.27 3160.34 3293.07 3172.47C3279.87 3184.78 3260.79 3190.93 3235.82 3190.93ZM3231.54 3130.74C3217.98 3130.74 3205.67 3127.88 3194.61 3122.17C3183.73 3116.29 3175.08 3108.17 3168.66 3097.83C3162.42 3087.48 3159.3 3075.35 3159.3 3061.44C3159.3 3047.71 3162.42 3035.67 3168.66 3025.32C3175.08 3014.98 3183.73 3006.95 3194.61 3001.24C3205.67 2995.53 3217.98 2992.68 3231.54 2992.68C3243.66 2992.68 3254.54 2995.09 3264.18 2999.9C3273.81 3004.72 3281.48 3012.21 3287.19 3022.38C3293.07 3032.55 3296.01 3045.57 3296.01 3061.44C3296.01 3077.31 3293.07 3090.42 3287.19 3100.77C3281.48 3110.94 3273.81 3118.52 3264.18 3123.51C3254.54 3128.33 3243.66 3130.74 3231.54 3130.74ZM3236.62 3102.38C3245 3102.38 3252.49 3100.68 3259.09 3097.29C3265.69 3093.72 3270.78 3088.91 3274.34 3082.84C3278.09 3076.6 3279.96 3069.47 3279.96 3061.44C3279.96 3053.41 3278.09 3046.37 3274.34 3040.3C3270.78 3034.06 3265.69 3029.33 3259.09 3026.12C3252.49 3022.74 3245 3021.04 3236.62 3021.04C3228.24 3021.04 3220.66 3022.74 3213.88 3026.12C3207.28 3029.33 3202.11 3034.06 3198.36 3040.3C3194.79 3046.37 3193.01 3053.41 3193.01 3061.44C3193.01 3069.47 3194.79 3076.6 3198.36 3082.84C3202.11 3088.91 3207.28 3093.72 3213.88 3097.29C3220.66 3100.68 3228.24 3102.38 3236.62 3102.38ZM3511.85 2992.68C3523.26 2992.68 3533.43 2994.91 3542.35 2999.37C3551.44 3003.83 3558.58 3010.7 3563.75 3019.97C3568.92 3029.07 3571.51 3040.84 3571.51 3055.29V3137.16H3538.07V3059.57C3538.07 3046.9 3535.03 3037.45 3528.97 3031.21C3523.08 3024.96 3514.79 3021.84 3504.09 3021.84C3496.24 3021.84 3489.28 3023.45 3483.22 3026.66C3477.15 3029.87 3472.43 3034.69 3469.04 3041.11C3465.83 3047.35 3464.22 3055.29 3464.22 3064.92V3137.16H3430.78V2938.64H3464.22V3032.81L3457 3021.04C3461.99 3011.94 3469.22 3004.99 3478.67 3000.17C3488.3 2995.18 3499.36 2992.68 3511.85 2992.68ZM3674.4 3139.03C3662.27 3139.03 3651.57 3136.8 3642.29 3132.34C3633.02 3127.7 3625.8 3120.75 3620.62 3111.47C3615.45 3102.02 3612.86 3090.16 3612.86 3075.89V2994.29H3646.31V3071.34C3646.31 3084.18 3649.16 3093.81 3654.87 3100.23C3660.76 3106.48 3669.05 3109.6 3679.75 3109.6C3687.6 3109.6 3694.38 3107.99 3700.08 3104.78C3705.97 3101.57 3710.52 3096.76 3713.73 3090.34C3717.12 3083.91 3718.81 3075.98 3718.81 3066.52V2994.29H3752.26V3137.16H3720.42V3098.63L3726.04 3110.4C3721.22 3119.68 3714.18 3126.81 3704.9 3131.81C3695.63 3136.62 3685.46 3139.03 3674.4 3139.03ZM3976.37 2992.68C3987.79 2992.68 3997.86 2994.91 4006.6 2999.37C4015.52 3003.83 4022.48 3010.7 4027.47 3019.97C4032.47 3029.07 4034.96 3040.84 4034.96 3055.29V3137.16H4001.52V3059.57C4001.52 3046.9 3998.76 3037.45 3993.23 3031.21C3987.7 3024.96 3979.76 3021.84 3969.42 3021.84C3962.1 3021.84 3955.59 3023.45 3949.88 3026.66C3944.35 3029.87 3939.98 3034.6 3936.77 3040.84C3933.74 3047.08 3932.23 3055.02 3932.23 3064.65V3137.16H3898.78V3059.57C3898.78 3046.9 3896.02 3037.45 3890.49 3031.21C3884.96 3024.96 3877.02 3021.84 3866.68 3021.84C3859.36 3021.84 3852.85 3023.45 3847.15 3026.66C3841.62 3029.87 3837.25 3034.6 3834.04 3040.84C3831 3047.08 3829.49 3055.02 3829.49 3064.65V3137.16H3796.04V2994.29H3827.88V3032.28L3822.26 3021.04C3827.08 3011.77 3834.04 3004.72 3843.13 2999.9C3852.41 2995.09 3862.93 2992.68 3874.7 2992.68C3888.08 2992.68 3899.67 2995.98 3909.48 3002.58C3919.47 3009.18 3926.07 3019.17 3929.28 3032.55L3916.17 3028C3920.81 3017.29 3928.48 3008.73 3939.18 3002.31C3949.88 2995.89 3962.28 2992.68 3976.37 2992.68ZM4165.72 3137.16V3108.26L4163.85 3102.11V3051.54C4163.85 3041.73 4160.91 3034.15 4155.02 3028.8C4149.14 3023.27 4140.22 3020.51 4128.27 3020.51C4120.24 3020.51 4112.3 3021.75 4104.46 3024.25C4096.79 3026.75 4090.28 3030.23 4084.92 3034.69L4071.81 3010.34C4079.48 3004.45 4088.58 3000.08 4099.1 2997.23C4109.81 2994.2 4120.86 2992.68 4132.28 2992.68C4152.97 2992.68 4168.93 2997.67 4180.17 3007.66C4191.59 3017.47 4197.29 3032.72 4197.29 3053.41V3137.16H4165.72ZM4120.78 3139.03C4110.07 3139.03 4100.71 3137.25 4092.68 3133.68C4084.66 3129.93 4078.41 3124.85 4073.95 3118.43C4069.67 3111.83 4067.53 3104.43 4067.53 3096.22C4067.53 3088.2 4069.41 3080.97 4073.15 3074.55C4077.08 3068.13 4083.41 3063.05 4092.15 3059.3C4100.89 3055.55 4112.48 3053.68 4126.93 3053.68H4168.4V3075.89H4129.34C4117.92 3075.89 4110.25 3077.76 4106.33 3081.51C4102.4 3085.07 4100.44 3089.53 4100.44 3094.88C4100.44 3100.95 4102.85 3105.76 4107.67 3109.33C4112.48 3112.9 4119.17 3114.68 4127.73 3114.68C4135.94 3114.68 4143.25 3112.81 4149.67 3109.06C4156.27 3105.32 4161 3099.79 4163.85 3092.48L4169.47 3112.54C4166.26 3120.93 4160.46 3127.44 4152.08 3132.07C4143.87 3136.71 4133.44 3139.03 4120.78 3139.03ZM4321.28 2992.68C4332.7 2992.68 4342.86 2994.91 4351.78 2999.37C4360.88 3003.83 4368.01 3010.7 4373.19 3019.97C4378.36 3029.07 4380.95 3040.84 4380.95 3055.29V3137.16H4347.5V3059.57C4347.5 3046.9 4344.47 3037.45 4338.4 3031.21C4332.52 3024.96 4324.22 3021.84 4313.52 3021.84C4305.67 3021.84 4298.72 3023.45 4292.65 3026.66C4286.59 3029.87 4281.86 3034.69 4278.47 3041.11C4275.26 3047.35 4273.66 3055.29 4273.66 3064.92V3137.16H4240.22V2994.29H4272.05V3032.81L4266.43 3021.04C4271.43 3011.94 4278.65 3004.99 4288.11 3000.17C4297.74 2995.18 4308.8 2992.68 4321.28 2992.68ZM4562.86 3139.03C4547.88 3139.03 4534.5 3135.91 4522.73 3129.66C4511.13 3123.24 4502.04 3114.5 4495.44 3103.45C4488.84 3092.39 4485.54 3079.81 4485.54 3065.72C4485.54 3051.45 4488.84 3038.88 4495.44 3028C4502.04 3016.94 4511.13 3008.29 4522.73 3002.04C4534.5 2995.8 4547.88 2992.68 4562.86 2992.68C4576.77 2992.68 4588.99 2995.53 4599.51 3001.24C4610.22 3006.77 4618.33 3014.98 4623.86 3025.86L4598.18 3040.84C4593.9 3034.06 4588.63 3029.07 4582.39 3025.86C4576.33 3022.65 4569.73 3021.04 4562.59 3021.04C4554.39 3021.04 4546.99 3022.82 4540.39 3026.39C4533.79 3029.96 4528.61 3035.13 4524.87 3041.91C4521.12 3048.51 4519.25 3056.45 4519.25 3065.72C4519.25 3075 4521.12 3083.02 4524.87 3089.8C4528.61 3096.4 4533.79 3101.48 4540.39 3105.05C4546.99 3108.62 4554.39 3110.4 4562.59 3110.4C4569.73 3110.4 4576.33 3108.8 4582.39 3105.59C4588.63 3102.38 4593.9 3097.38 4598.18 3090.6L4623.86 3105.59C4618.33 3116.29 4610.22 3124.58 4599.51 3130.47C4588.99 3136.18 4576.77 3139.03 4562.86 3139.03ZM4714.89 3139.03C4700.27 3139.03 4687.25 3135.91 4675.83 3129.66C4664.41 3123.24 4655.41 3114.5 4648.81 3103.45C4642.21 3092.39 4638.91 3079.81 4638.91 3065.72C4638.91 3051.45 4642.21 3038.88 4648.81 3028C4655.41 3016.94 4664.41 3008.29 4675.83 3002.04C4687.25 2995.8 4700.27 2992.68 4714.89 2992.68C4729.7 2992.68 4742.81 2995.8 4754.22 3002.04C4765.82 3008.29 4774.82 3016.85 4781.24 3027.73C4787.84 3038.61 4791.14 3051.27 4791.14 3065.72C4791.14 3079.81 4787.84 3092.39 4781.24 3103.45C4774.82 3114.5 4765.82 3123.24 4754.22 3129.66C4742.81 3135.91 4729.7 3139.03 4714.89 3139.03ZM4714.89 3110.4C4723.1 3110.4 4730.41 3108.62 4736.83 3105.05C4743.25 3101.48 4748.25 3096.31 4751.81 3089.53C4755.56 3082.75 4757.43 3074.82 4757.43 3065.72C4757.43 3056.45 4755.56 3048.51 4751.81 3041.91C4748.25 3035.13 4743.25 3029.96 4736.83 3026.39C4730.41 3022.82 4723.19 3021.04 4715.16 3021.04C4706.96 3021.04 4699.64 3022.82 4693.22 3026.39C4686.98 3029.96 4681.98 3035.13 4678.24 3041.91C4674.49 3048.51 4672.62 3056.45 4672.62 3065.72C4672.62 3074.82 4674.49 3082.75 4678.24 3089.53C4681.98 3096.31 4686.98 3101.48 4693.22 3105.05C4699.64 3108.62 4706.87 3110.4 4714.89 3110.4ZM5003.45 2992.68C5014.87 2992.68 5024.94 2994.91 5033.68 2999.37C5042.6 3003.83 5049.56 3010.7 5054.55 3019.97C5059.55 3029.07 5062.04 3040.84 5062.04 3055.29V3137.16H5028.6V3059.57C5028.6 3046.9 5025.84 3037.45 5020.31 3031.21C5014.78 3024.96 5006.84 3021.84 4996.49 3021.84C4989.18 3021.84 4982.67 3023.45 4976.96 3026.66C4971.43 3029.87 4967.06 3034.6 4963.85 3040.84C4960.82 3047.08 4959.31 3055.02 4959.31 3064.65V3137.16H4925.86V3059.57C4925.86 3046.9 4923.1 3037.45 4917.57 3031.21C4912.04 3024.96 4904.1 3021.84 4893.76 3021.84C4886.44 3021.84 4879.93 3023.45 4874.23 3026.66C4868.7 3029.87 4864.33 3034.6 4861.12 3040.84C4858.08 3047.08 4856.57 3055.02 4856.57 3064.65V3137.16H4823.12V2994.29H4854.96V3032.28L4849.34 3021.04C4854.16 3011.77 4861.12 3004.72 4870.21 2999.9C4879.49 2995.09 4890.01 2992.68 4901.78 2992.68C4915.16 2992.68 4926.75 2995.98 4936.56 3002.58C4946.55 3009.18 4953.15 3019.17 4956.36 3032.55L4943.25 3028C4947.89 3017.29 4955.56 3008.73 4966.26 3002.31C4976.96 2995.89 4989.36 2992.68 5003.45 2992.68ZM5285.11 2992.68C5296.52 2992.68 5306.6 2994.91 5315.34 2999.37C5324.26 3003.83 5331.21 3010.7 5336.21 3019.97C5341.2 3029.07 5343.7 3040.84 5343.7 3055.29V3137.16H5310.26V3059.57C5310.26 3046.9 5307.49 3037.45 5301.96 3031.21C5296.43 3024.96 5288.5 3021.84 5278.15 3021.84C5270.84 3021.84 5264.33 3023.45 5258.62 3026.66C5253.09 3029.87 5248.72 3034.6 5245.51 3040.84C5242.48 3047.08 5240.96 3055.02 5240.96 3064.65V3137.16H5207.52V3059.57C5207.52 3046.9 5204.75 3037.45 5199.22 3031.21C5193.7 3024.96 5185.76 3021.84 5175.41 3021.84C5168.1 3021.84 5161.59 3023.45 5155.88 3026.66C5150.35 3029.87 5145.98 3034.6 5142.77 3040.84C5139.74 3047.08 5138.22 3055.02 5138.22 3064.65V3137.16H5104.78V2994.29H5136.62V3032.28L5131 3021.04C5135.82 3011.77 5142.77 3004.72 5151.87 2999.9C5161.14 2995.09 5171.67 2992.68 5183.44 2992.68C5196.82 2992.68 5208.41 2995.98 5218.22 3002.58C5228.21 3009.18 5234.81 3019.17 5238.02 3032.55L5224.91 3028C5229.55 3017.29 5237.22 3008.73 5247.92 3002.31C5258.62 2995.89 5271.02 2992.68 5285.11 2992.68ZM5446.9 3139.03C5434.77 3139.03 5424.07 3136.8 5414.8 3132.34C5405.52 3127.7 5398.3 3120.75 5393.13 3111.47C5387.95 3102.02 5385.37 3090.16 5385.37 3075.89V2994.29H5418.81V3071.34C5418.81 3084.18 5421.66 3093.81 5427.37 3100.23C5433.26 3106.48 5441.55 3109.6 5452.25 3109.6C5460.1 3109.6 5466.88 3107.99 5472.59 3104.78C5478.47 3101.57 5483.02 3096.76 5486.23 3090.34C5489.62 3083.91 5491.32 3075.98 5491.32 3066.52V2994.29H5524.76V3137.16H5492.92V3098.63L5498.54 3110.4C5493.72 3119.68 5486.68 3126.81 5477.4 3131.81C5468.13 3136.62 5457.96 3139.03 5446.9 3139.03ZM5649.61 2992.68C5661.03 2992.68 5671.2 2994.91 5680.11 2999.37C5689.21 3003.83 5696.35 3010.7 5701.52 3019.97C5706.69 3029.07 5709.28 3040.84 5709.28 3055.29V3137.16H5675.83V3059.57C5675.83 3046.9 5672.8 3037.45 5666.74 3031.21C5660.85 3024.96 5652.56 3021.84 5641.85 3021.84C5634.01 3021.84 5627.05 3023.45 5620.99 3026.66C5614.92 3029.87 5610.19 3034.69 5606.81 3041.11C5603.6 3047.35 5601.99 3055.29 5601.99 3064.92V3137.16H5568.55V2994.29H5600.38V3032.81L5594.77 3021.04C5599.76 3011.94 5606.98 3004.99 5616.44 3000.17C5626.07 2995.18 5637.13 2992.68 5649.61 2992.68ZM5751.7 3137.16V2994.29H5785.15V3137.16H5751.7ZM5768.56 2970.74C5762.31 2970.74 5757.14 2968.78 5753.04 2964.86C5749.12 2960.93 5747.15 2956.2 5747.15 2950.68C5747.15 2944.97 5749.12 2940.24 5753.04 2936.5C5757.14 2932.57 5762.31 2930.61 5768.56 2930.61C5774.8 2930.61 5779.88 2932.48 5783.81 2936.23C5787.91 2939.8 5789.96 2944.34 5789.96 2949.87C5789.96 2955.76 5788 2960.75 5784.08 2964.86C5780.15 2968.78 5774.98 2970.74 5768.56 2970.74ZM5894.59 3139.03C5879.61 3139.03 5866.23 3135.91 5854.46 3129.66C5842.86 3123.24 5833.77 3114.5 5827.17 3103.45C5820.57 3092.39 5817.27 3079.81 5817.27 3065.72C5817.27 3051.45 5820.57 3038.88 5827.17 3028C5833.77 3016.94 5842.86 3008.29 5854.46 3002.04C5866.23 2995.8 5879.61 2992.68 5894.59 2992.68C5908.5 2992.68 5920.72 2995.53 5931.24 3001.24C5941.94 3006.77 5950.06 3014.98 5955.59 3025.86L5929.91 3040.84C5925.62 3034.06 5920.36 3029.07 5914.12 3025.86C5908.06 3022.65 5901.46 3021.04 5894.32 3021.04C5886.12 3021.04 5878.71 3022.82 5872.11 3026.39C5865.52 3029.96 5860.34 3035.13 5856.6 3041.91C5852.85 3048.51 5850.98 3056.45 5850.98 3065.72C5850.98 3075 5852.85 3083.02 5856.6 3089.8C5860.34 3096.4 5865.52 3101.48 5872.11 3105.05C5878.71 3108.62 5886.12 3110.4 5894.32 3110.4C5901.46 3110.4 5908.06 3108.8 5914.12 3105.59C5920.36 3102.38 5925.62 3097.38 5929.91 3090.6L5955.59 3105.59C5950.06 3116.29 5941.94 3124.58 5931.24 3130.47C5920.72 3136.18 5908.5 3139.03 5894.59 3139.03ZM6072.52 3137.16V3108.26L6070.65 3102.11V3051.54C6070.65 3041.73 6067.71 3034.15 6061.82 3028.8C6055.93 3023.27 6047.02 3020.51 6035.07 3020.51C6027.04 3020.51 6019.1 3021.75 6011.25 3024.25C6003.58 3026.75 5997.07 3030.23 5991.72 3034.69L5978.61 3010.34C5986.28 3004.45 5995.38 3000.08 6005.9 2997.23C6016.61 2994.2 6027.66 2992.68 6039.08 2992.68C6059.77 2992.68 6075.73 2997.67 6086.97 3007.66C6098.39 3017.47 6104.09 3032.72 6104.09 3053.41V3137.16H6072.52ZM6027.57 3139.03C6016.87 3139.03 6007.51 3137.25 5999.48 3133.68C5991.46 3129.93 5985.21 3124.85 5980.75 3118.43C5976.47 3111.83 5974.33 3104.43 5974.33 3096.22C5974.33 3088.2 5976.21 3080.97 5979.95 3074.55C5983.88 3068.13 5990.21 3063.05 5998.95 3059.3C6007.69 3055.55 6019.28 3053.68 6033.73 3053.68H6075.2V3075.89H6036.14C6024.72 3075.89 6017.05 3077.76 6013.13 3081.51C6009.2 3085.07 6007.24 3089.53 6007.24 3094.88C6007.24 3100.95 6009.65 3105.76 6014.46 3109.33C6019.28 3112.9 6025.97 3114.68 6034.53 3114.68C6042.74 3114.68 6050.05 3112.81 6056.47 3109.06C6063.07 3105.32 6067.8 3099.79 6070.65 3092.48L6076.27 3112.54C6073.06 3120.93 6067.26 3127.44 6058.88 3132.07C6050.67 3136.71 6040.24 3139.03 6027.57 3139.03ZM6200.79 3139.03C6185.09 3139.03 6172.97 3135.02 6164.4 3126.99C6155.84 3118.78 6151.56 3106.75 6151.56 3090.87V2962.72H6185.01V3090.07C6185.01 3096.85 6186.7 3102.11 6190.09 3105.85C6193.66 3109.6 6198.56 3111.47 6204.8 3111.47C6212.3 3111.47 6218.54 3109.51 6223.53 3105.59L6232.9 3129.4C6228.97 3132.61 6224.16 3135.02 6218.45 3136.62C6212.74 3138.23 6206.86 3139.03 6200.79 3139.03ZM6128.02 3022.11V2995.36H6223.26V3022.11H6128.02ZM6260.41 3137.16V2994.29H6293.85V3137.16H6260.41ZM6277.26 2970.74C6271.02 2970.74 6265.85 2968.78 6261.75 2964.86C6257.82 2960.93 6255.86 2956.2 6255.86 2950.68C6255.86 2944.97 6257.82 2940.24 6261.75 2936.5C6265.85 2932.57 6271.02 2930.61 6277.26 2930.61C6283.51 2930.61 6288.59 2932.48 6292.51 2936.23C6296.62 2939.8 6298.67 2944.34 6298.67 2949.87C6298.67 2955.76 6296.71 2960.75 6292.78 2964.86C6288.86 2968.78 6283.68 2970.74 6277.26 2970.74ZM6401.96 3139.03C6387.33 3139.03 6374.31 3135.91 6362.9 3129.66C6351.48 3123.24 6342.47 3114.5 6335.87 3103.45C6329.27 3092.39 6325.97 3079.81 6325.97 3065.72C6325.97 3051.45 6329.27 3038.88 6335.87 3028C6342.47 3016.94 6351.48 3008.29 6362.9 3002.04C6374.31 2995.8 6387.33 2992.68 6401.96 2992.68C6416.76 2992.68 6429.87 2995.8 6441.29 3002.04C6452.88 3008.29 6461.89 3016.85 6468.31 3027.73C6474.91 3038.61 6478.21 3051.27 6478.21 3065.72C6478.21 3079.81 6474.91 3092.39 6468.31 3103.45C6461.89 3114.5 6452.88 3123.24 6441.29 3129.66C6429.87 3135.91 6416.76 3139.03 6401.96 3139.03ZM6401.96 3110.4C6410.16 3110.4 6417.48 3108.62 6423.9 3105.05C6430.32 3101.48 6435.31 3096.31 6438.88 3089.53C6442.62 3082.75 6444.5 3074.82 6444.5 3065.72C6444.5 3056.45 6442.62 3048.51 6438.88 3041.91C6435.31 3035.13 6430.32 3029.96 6423.9 3026.39C6417.48 3022.82 6410.25 3021.04 6402.22 3021.04C6394.02 3021.04 6386.71 3022.82 6380.29 3026.39C6374.04 3029.96 6369.05 3035.13 6365.3 3041.91C6361.56 3048.51 6359.68 3056.45 6359.68 3065.72C6359.68 3074.82 6361.56 3082.75 6365.3 3089.53C6369.05 3096.31 6374.04 3101.48 6380.29 3105.05C6386.71 3108.62 6393.93 3110.4 6401.96 3110.4ZM6591.26 2992.68C6602.67 2992.68 6612.84 2994.91 6621.76 2999.37C6630.85 3003.83 6637.99 3010.7 6643.16 3019.97C6648.33 3029.07 6650.92 3040.84 6650.92 3055.29V3137.16H6617.47V3059.57C6617.47 3046.9 6614.44 3037.45 6608.38 3031.21C6602.49 3024.96 6594.2 3021.84 6583.5 3021.84C6575.65 3021.84 6568.69 3023.45 6562.63 3026.66C6556.56 3029.87 6551.84 3034.69 6548.45 3041.11C6545.24 3047.35 6543.63 3055.29 6543.63 3064.92V3137.16H6510.19V2994.29H6542.03V3032.81L6536.41 3021.04C6541.4 3011.94 6548.63 3004.99 6558.08 3000.17C6567.71 2995.18 6578.77 2992.68 6591.26 2992.68Z" fill="#3D3D3D"/>
<path d="M222.41 3708.98H321.402V3726.1H222.41V3708.98ZM224.55 3805.56H204.751V3618.28H333.174V3635.4H224.55V3805.56ZM422.598 3806.9C409.042 3806.9 396.824 3803.87 385.944 3797.81C375.242 3791.56 366.77 3783.09 360.527 3772.39C354.284 3761.51 351.163 3749.11 351.163 3735.2C351.163 3721.11 354.284 3708.71 360.527 3698.01C366.77 3687.31 375.242 3678.93 385.944 3672.86C396.646 3666.8 408.864 3663.76 422.598 3663.76C436.51 3663.76 448.817 3666.8 459.519 3672.86C470.4 3678.93 478.872 3687.31 484.936 3698.01C491.179 3708.71 494.301 3721.11 494.301 3735.2C494.301 3749.11 491.179 3761.51 484.936 3772.39C478.872 3783.09 470.4 3791.56 459.519 3797.81C448.639 3803.87 436.332 3806.9 422.598 3806.9ZM422.598 3790.05C432.765 3790.05 441.772 3787.82 449.62 3783.36C457.468 3778.72 463.622 3772.3 468.081 3764.09C472.718 3755.71 475.037 3746.08 475.037 3735.2C475.037 3724.14 472.718 3714.51 468.081 3706.3C463.622 3698.1 457.468 3691.77 449.62 3687.31C441.772 3682.67 432.854 3680.35 422.865 3680.35C412.877 3680.35 403.959 3682.67 396.111 3687.31C388.263 3691.77 382.02 3698.1 377.382 3706.3C372.745 3714.51 370.426 3724.14 370.426 3735.2C370.426 3746.08 372.745 3755.71 377.382 3764.09C382.02 3772.3 388.263 3778.72 396.111 3783.36C403.959 3787.82 412.788 3790.05 422.598 3790.05ZM604.785 3663.76C616.201 3663.76 626.189 3665.99 634.75 3670.45C643.49 3674.73 650.268 3681.33 655.084 3690.25C660.078 3699.17 662.575 3710.41 662.575 3723.96V3805.56H643.58V3725.84C643.58 3711.03 639.834 3699.88 632.343 3692.39C625.03 3684.72 614.684 3680.89 601.307 3680.89C591.319 3680.89 582.579 3682.94 575.087 3687.04C567.774 3690.96 562.067 3696.76 557.964 3704.43C554.04 3711.92 552.078 3721.02 552.078 3731.72V3805.56H533.082V3665.1H551.276V3703.63L548.333 3696.41C552.792 3686.24 559.926 3678.3 569.736 3672.59C579.547 3666.71 591.229 3663.76 604.785 3663.76ZM758.299 3806.9C745.1 3806.9 734.933 3803.33 727.798 3796.2C720.664 3789.07 717.097 3778.99 717.097 3765.97V3634.07H736.092V3764.9C736.092 3773.1 738.144 3779.43 742.246 3783.89C746.527 3788.35 752.591 3790.58 760.439 3790.58C768.822 3790.58 775.779 3788.17 781.308 3783.36L787.997 3797C784.251 3800.39 779.703 3802.89 774.352 3804.49C769.179 3806.1 763.828 3806.9 758.299 3806.9ZM691.947 3680.89V3665.1H778.9V3680.89H691.947ZM824.45 3692.93C820.526 3692.93 817.137 3691.5 814.283 3688.65C811.608 3685.79 810.27 3682.31 810.27 3678.21C810.27 3673.93 811.608 3670.45 814.283 3667.78C817.137 3665.1 820.526 3663.76 824.45 3663.76C828.374 3663.76 831.674 3665.1 834.349 3667.78C837.203 3670.45 838.63 3673.93 838.63 3678.21C838.63 3682.31 837.203 3685.79 834.349 3688.65C831.674 3691.5 828.374 3692.93 824.45 3692.93ZM824.45 3806.9C820.526 3806.9 817.137 3805.48 814.283 3802.62C811.608 3799.77 810.27 3796.29 810.27 3792.19C810.27 3787.91 811.608 3784.43 814.283 3781.75C817.137 3779.08 820.526 3777.74 824.45 3777.74C828.374 3777.74 831.674 3779.08 834.349 3781.75C837.203 3784.43 838.63 3787.91 838.63 3792.19C838.63 3796.29 837.203 3799.77 834.349 3802.62C831.674 3805.48 828.374 3806.9 824.45 3806.9ZM953.31 3805.56V3618.28H969.63L1055.25 3764.36H1046.68L1131.5 3618.28H1147.82V3805.56H1128.82V3647.98H1133.37L1055.25 3781.75H1045.88L967.222 3647.98H972.306V3805.56H953.31ZM1262.08 3806.9C1248.52 3806.9 1236.31 3803.87 1225.43 3797.81C1214.72 3791.56 1206.25 3783.09 1200.01 3772.39C1193.77 3761.51 1190.65 3749.11 1190.65 3735.2C1190.65 3721.11 1193.77 3708.71 1200.01 3698.01C1206.25 3687.31 1214.72 3678.93 1225.43 3672.86C1236.13 3666.8 1248.35 3663.76 1262.08 3663.76C1275.99 3663.76 1288.3 3666.8 1299 3672.86C1309.88 3678.93 1318.35 3687.31 1324.42 3698.01C1330.66 3708.71 1333.78 3721.11 1333.78 3735.2C1333.78 3749.11 1330.66 3761.51 1324.42 3772.39C1318.35 3783.09 1309.88 3791.56 1299 3797.81C1288.12 3803.87 1275.81 3806.9 1262.08 3806.9ZM1262.08 3790.05C1272.25 3790.05 1281.25 3787.82 1289.1 3783.36C1296.95 3778.72 1303.1 3772.3 1307.56 3764.09C1312.2 3755.71 1314.52 3746.08 1314.52 3735.2C1314.52 3724.14 1312.2 3714.51 1307.56 3706.3C1303.1 3698.1 1296.95 3691.77 1289.1 3687.31C1281.25 3682.67 1272.34 3680.35 1262.35 3680.35C1252.36 3680.35 1243.44 3682.67 1235.59 3687.31C1227.75 3691.77 1221.5 3698.1 1216.86 3706.3C1212.23 3714.51 1209.91 3724.14 1209.91 3735.2C1209.91 3746.08 1212.23 3755.71 1216.86 3764.09C1221.5 3772.3 1227.75 3778.72 1235.59 3783.36C1243.44 3787.82 1252.27 3790.05 1262.08 3790.05ZM1444.27 3663.76C1455.68 3663.76 1465.67 3665.99 1474.23 3670.45C1482.97 3674.73 1489.75 3681.33 1494.57 3690.25C1499.56 3699.17 1502.06 3710.41 1502.06 3723.96V3805.56H1483.06V3725.84C1483.06 3711.03 1479.32 3699.88 1471.83 3692.39C1464.51 3684.72 1454.17 3680.89 1440.79 3680.89C1430.8 3680.89 1422.06 3682.94 1414.57 3687.04C1407.26 3690.96 1401.55 3696.76 1397.45 3704.43C1393.52 3711.92 1391.56 3721.02 1391.56 3731.72V3805.56H1372.57V3665.1H1390.76V3703.63L1387.82 3696.41C1392.27 3686.24 1399.41 3678.3 1409.22 3672.59C1419.03 3666.71 1430.71 3663.76 1444.27 3663.76ZM1597.78 3806.9C1584.58 3806.9 1574.42 3803.33 1567.28 3796.2C1560.15 3789.07 1556.58 3778.99 1556.58 3765.97V3634.07H1575.58V3764.9C1575.58 3773.1 1577.63 3779.43 1581.73 3783.89C1586.01 3788.35 1592.07 3790.58 1599.92 3790.58C1608.31 3790.58 1615.26 3788.17 1620.79 3783.36L1627.48 3797C1623.73 3800.39 1619.19 3802.89 1613.83 3804.49C1608.66 3806.1 1603.31 3806.9 1597.78 3806.9ZM1531.43 3680.89V3665.1H1618.38V3680.89H1531.43ZM1699.78 3806.9C1688.19 3806.9 1677.22 3805.3 1666.88 3802.09C1656.53 3798.7 1648.42 3794.51 1642.53 3789.51L1651.09 3774.53C1656.8 3778.81 1664.11 3782.56 1673.03 3785.77C1681.95 3788.8 1691.31 3790.31 1701.12 3790.31C1714.5 3790.31 1724.13 3788.26 1730.02 3784.16C1735.9 3779.88 1738.85 3774.26 1738.85 3767.31C1738.85 3762.13 1737.15 3758.12 1733.76 3755.27C1730.55 3752.23 1726.27 3750 1720.92 3748.58C1715.57 3746.97 1709.59 3745.63 1702.99 3744.56C1696.4 3743.49 1689.8 3742.24 1683.2 3740.82C1676.78 3739.39 1670.89 3737.34 1665.54 3734.66C1660.19 3731.81 1655.82 3727.98 1652.43 3723.16C1649.22 3718.34 1647.61 3711.92 1647.61 3703.9C1647.61 3696.23 1649.75 3689.36 1654.03 3683.3C1658.31 3677.23 1664.56 3672.5 1672.76 3669.12C1681.15 3665.55 1691.31 3663.76 1703.26 3663.76C1712.36 3663.76 1721.46 3665.01 1730.55 3667.51C1739.65 3669.83 1747.14 3672.95 1753.03 3676.87L1744.73 3692.12C1738.49 3687.84 1731.8 3684.81 1724.67 3683.03C1717.53 3681.07 1710.4 3680.08 1703.26 3680.08C1690.6 3680.08 1681.23 3682.31 1675.17 3686.77C1669.28 3691.05 1666.34 3696.58 1666.34 3703.36C1666.34 3708.71 1667.95 3712.9 1671.16 3715.94C1674.55 3718.97 1678.92 3721.38 1684.27 3723.16C1689.8 3724.77 1695.77 3726.1 1702.19 3727.17C1708.79 3728.24 1715.3 3729.58 1721.72 3731.19C1728.32 3732.61 1734.3 3734.66 1739.65 3737.34C1745.18 3739.84 1749.55 3743.49 1752.76 3748.31C1756.15 3752.95 1757.84 3759.1 1757.84 3766.77C1757.84 3774.97 1755.52 3782.11 1750.89 3788.17C1746.43 3794.06 1739.83 3798.7 1731.09 3802.09C1722.53 3805.3 1712.09 3806.9 1699.78 3806.9ZM1852.36 3806.9C1837.74 3806.9 1824.89 3803.87 1813.83 3797.81C1802.78 3791.56 1794.13 3783.09 1787.88 3772.39C1781.64 3761.51 1778.52 3749.11 1778.52 3735.2C1778.52 3721.29 1781.46 3708.98 1787.35 3698.28C1793.41 3687.58 1801.62 3679.19 1811.96 3673.13C1822.49 3666.89 1834.26 3663.76 1847.28 3663.76C1860.48 3663.76 1872.16 3666.8 1882.33 3672.86C1892.67 3678.75 1900.79 3687.13 1906.67 3698.01C1912.56 3708.71 1915.5 3721.11 1915.5 3735.2C1915.5 3736.09 1915.41 3737.07 1915.24 3738.14C1915.24 3739.03 1915.24 3740.02 1915.24 3741.09H1792.97V3726.91H1905.07L1897.58 3732.52C1897.58 3722.36 1895.35 3713.35 1890.89 3705.5C1886.61 3697.48 1880.72 3691.23 1873.23 3686.77C1865.74 3682.31 1857.09 3680.08 1847.28 3680.08C1837.65 3680.08 1829 3682.31 1821.33 3686.77C1813.66 3691.23 1807.68 3697.48 1803.4 3705.5C1799.12 3713.53 1796.98 3722.71 1796.98 3733.06V3736C1796.98 3746.7 1799.3 3756.16 1803.94 3764.36C1808.75 3772.39 1815.35 3778.72 1823.73 3783.36C1832.3 3787.82 1842.02 3790.05 1852.9 3790.05C1861.46 3790.05 1869.4 3788.53 1876.71 3785.5C1884.2 3782.47 1890.62 3777.83 1895.97 3771.59L1906.67 3783.89C1900.43 3791.38 1892.58 3797.09 1883.13 3801.02C1873.85 3804.94 1863.6 3806.9 1852.36 3806.9ZM1954.17 3805.56V3665.1H1972.36V3703.36L1970.49 3696.67C1974.41 3685.97 1981.01 3677.86 1990.29 3672.33C1999.56 3666.62 2011.07 3663.76 2024.8 3663.76V3682.23C2024.09 3682.23 2023.37 3682.23 2022.66 3682.23C2021.95 3682.05 2021.23 3681.96 2020.52 3681.96C2005.71 3681.96 1994.12 3686.51 1985.74 3695.6C1977.35 3704.52 1973.16 3717.27 1973.16 3733.86V3805.56H1954.17ZM2059.46 3805.56V3665.1H2077.66V3703.36L2075.78 3696.67C2079.71 3685.97 2086.31 3677.86 2095.58 3672.33C2104.86 3666.62 2116.36 3663.76 2130.09 3663.76V3682.23C2129.38 3682.23 2128.67 3682.23 2127.95 3682.23C2127.24 3682.05 2126.53 3681.96 2125.81 3681.96C2111.01 3681.96 2099.42 3686.51 2091.03 3695.6C2082.65 3704.52 2078.46 3717.27 2078.46 3733.86V3805.56H2059.46ZM2242.33 3805.56V3774.53L2241.53 3769.45V3717.54C2241.53 3705.59 2238.14 3696.41 2231.36 3689.98C2224.76 3683.56 2214.86 3680.35 2201.66 3680.35C2192.56 3680.35 2183.91 3681.87 2175.71 3684.9C2167.5 3687.93 2160.55 3691.95 2154.84 3696.94L2146.28 3682.76C2153.41 3676.7 2161.98 3672.06 2171.96 3668.85C2181.95 3665.46 2192.48 3663.76 2203.53 3663.76C2221.73 3663.76 2235.73 3668.31 2245.54 3677.41C2255.53 3686.33 2260.52 3699.97 2260.52 3718.34V3805.56H2242.33ZM2193.9 3806.9C2183.38 3806.9 2174.19 3805.21 2166.35 3801.82C2158.68 3798.25 2152.79 3793.44 2148.69 3787.37C2144.58 3781.13 2142.53 3773.99 2142.53 3765.97C2142.53 3758.65 2144.23 3752.05 2147.62 3746.17C2151.18 3740.1 2156.89 3735.29 2164.74 3731.72C2172.77 3727.98 2183.47 3726.1 2196.85 3726.1H2245.27V3740.28H2197.38C2183.82 3740.28 2174.37 3742.69 2169.02 3747.51C2163.85 3752.32 2161.26 3758.3 2161.26 3765.43C2161.26 3773.46 2164.38 3779.88 2170.63 3784.7C2176.87 3789.51 2185.61 3791.92 2196.85 3791.92C2207.55 3791.92 2216.73 3789.51 2224.4 3784.7C2232.25 3779.7 2237.96 3772.57 2241.53 3763.29L2245.81 3776.4C2242.24 3785.68 2236 3793.08 2227.08 3798.61C2218.34 3804.14 2207.28 3806.9 2193.9 3806.9ZM2356.53 3806.9C2343.33 3806.9 2333.16 3803.33 2326.03 3796.2C2318.89 3789.07 2315.33 3778.99 2315.33 3765.97V3634.07H2334.32V3764.9C2334.32 3773.1 2336.37 3779.43 2340.48 3783.89C2344.76 3788.35 2350.82 3790.58 2358.67 3790.58C2367.05 3790.58 2374.01 3788.17 2379.54 3783.36L2386.23 3797C2382.48 3800.39 2377.93 3802.89 2372.58 3804.49C2367.41 3806.1 2362.06 3806.9 2356.53 3806.9ZM2290.18 3680.89V3665.1H2377.13V3680.89H2290.18Z" fill="#3D3D3D"/>
<path d="M286.086 4226.98C271.995 4226.98 258.974 4224.67 247.024 4220.03C235.073 4215.21 224.728 4208.52 215.988 4199.96C207.249 4191.4 200.381 4181.32 195.387 4169.73C190.571 4158.14 188.163 4145.47 188.163 4131.74C188.163 4118 190.571 4105.34 195.387 4093.75C200.381 4082.15 207.249 4072.07 215.988 4063.51C224.907 4054.95 235.341 4048.35 247.291 4043.71C259.242 4038.9 272.263 4036.49 286.353 4036.49C299.909 4036.49 312.662 4038.81 324.613 4043.45C336.563 4047.91 346.641 4054.68 354.846 4063.78L342.271 4076.36C334.601 4068.51 326.129 4062.89 316.854 4059.5C307.579 4055.93 297.59 4054.15 286.889 4054.15C275.652 4054.15 265.217 4056.11 255.585 4060.04C245.954 4063.78 237.571 4069.22 230.436 4076.36C223.301 4083.31 217.683 4091.52 213.58 4100.97C209.656 4110.24 207.694 4120.5 207.694 4131.74C207.694 4142.97 209.656 4153.32 213.58 4162.77C217.683 4172.05 223.301 4180.25 230.436 4187.39C237.571 4194.34 245.954 4199.78 255.585 4203.71C265.217 4207.45 275.652 4209.33 286.889 4209.33C297.59 4209.33 307.579 4207.54 316.854 4203.98C326.129 4200.41 334.601 4194.7 342.271 4186.85L354.846 4199.43C346.641 4208.52 336.563 4215.39 324.613 4220.03C312.662 4224.67 299.82 4226.98 286.086 4226.98ZM444.023 4226.72C430.467 4226.72 418.249 4223.68 407.369 4217.62C396.667 4211.38 388.194 4202.91 381.951 4192.2C375.709 4181.32 372.587 4168.93 372.587 4155.01C372.587 4140.92 375.709 4128.53 381.951 4117.83C388.194 4107.12 396.667 4098.74 407.369 4092.68C418.07 4086.61 430.288 4083.58 444.023 4083.58C457.935 4083.58 470.242 4086.61 480.944 4092.68C491.824 4098.74 500.297 4107.12 506.361 4117.83C512.604 4128.53 515.725 4140.92 515.725 4155.01C515.725 4168.93 512.604 4181.32 506.361 4192.2C500.297 4202.91 491.824 4211.38 480.944 4217.62C470.064 4223.68 457.757 4226.72 444.023 4226.72ZM444.023 4209.86C454.189 4209.86 463.197 4207.63 471.045 4203.17C478.893 4198.54 485.046 4192.11 489.506 4183.91C494.143 4175.53 496.462 4165.89 496.462 4155.01C496.462 4143.96 494.143 4134.32 489.506 4126.12C485.046 4117.91 478.893 4111.58 471.045 4107.12C463.197 4102.49 454.279 4100.17 444.29 4100.17C434.302 4100.17 425.383 4102.49 417.535 4107.12C409.687 4111.58 403.444 4117.91 398.807 4126.12C394.169 4134.32 391.851 4143.96 391.851 4155.01C391.851 4165.89 394.169 4175.53 398.807 4183.91C403.444 4192.11 409.687 4198.54 417.535 4203.17C425.383 4207.63 434.212 4209.86 444.023 4209.86ZM554.507 4225.38V4026.86H573.503V4225.38H554.507ZM683.613 4226.72C670.058 4226.72 657.84 4223.68 646.959 4217.62C636.258 4211.38 627.785 4202.91 621.542 4192.2C615.3 4181.32 612.178 4168.93 612.178 4155.01C612.178 4140.92 615.3 4128.53 621.542 4117.83C627.785 4107.12 636.258 4098.74 646.959 4092.68C657.661 4086.61 669.879 4083.58 683.613 4083.58C697.526 4083.58 709.833 4086.61 720.535 4092.68C731.415 4098.74 739.888 4107.12 745.952 4117.83C752.195 4128.53 755.316 4140.92 755.316 4155.01C755.316 4168.93 752.195 4181.32 745.952 4192.2C739.888 4202.91 731.415 4211.38 720.535 4217.62C709.655 4223.68 697.348 4226.72 683.613 4226.72ZM683.613 4209.86C693.78 4209.86 702.788 4207.63 710.636 4203.17C718.484 4198.54 724.637 4192.11 729.097 4183.91C733.734 4175.53 736.053 4165.89 736.053 4155.01C736.053 4143.96 733.734 4134.32 729.097 4126.12C724.637 4117.91 718.484 4111.58 710.636 4107.12C702.788 4102.49 693.869 4100.17 683.881 4100.17C673.893 4100.17 664.974 4102.49 657.126 4107.12C649.278 4111.58 643.035 4117.91 638.398 4126.12C633.76 4134.32 631.442 4143.96 631.442 4155.01C631.442 4165.89 633.76 4175.53 638.398 4183.91C643.035 4192.11 649.278 4198.54 657.126 4203.17C664.974 4207.63 673.803 4209.86 683.613 4209.86ZM794.098 4225.38V4084.92H812.291V4123.18L810.418 4116.49C814.342 4105.79 820.942 4097.67 830.217 4092.14C839.492 4086.43 850.996 4083.58 864.731 4083.58V4102.04C864.017 4102.04 863.304 4102.04 862.59 4102.04C861.877 4101.86 861.163 4101.77 860.45 4101.77C845.646 4101.77 834.052 4106.32 825.669 4115.42C817.286 4124.34 813.094 4137.09 813.094 4153.68V4225.38H794.098ZM938.684 4226.72C927.091 4226.72 916.121 4225.11 905.776 4221.9C895.431 4218.51 887.315 4214.32 881.429 4209.33L889.991 4194.34C895.699 4198.62 903.011 4202.37 911.93 4205.58C920.848 4208.61 930.212 4210.13 940.022 4210.13C953.4 4210.13 963.031 4208.08 968.917 4203.98C974.803 4199.69 977.746 4194.08 977.746 4187.12C977.746 4181.95 976.052 4177.93 972.663 4175.08C969.452 4172.05 965.172 4169.82 959.821 4168.39C954.47 4166.79 948.495 4165.45 941.895 4164.38C935.296 4163.31 928.696 4162.06 922.097 4160.63C915.675 4159.21 909.789 4157.15 904.438 4154.48C899.087 4151.63 894.718 4147.79 891.329 4142.97C888.118 4138.16 886.513 4131.74 886.513 4123.71C886.513 4116.04 888.653 4109.17 892.934 4103.11C897.215 4097.05 903.457 4092.32 911.662 4088.93C920.045 4085.36 930.212 4083.58 942.163 4083.58C951.259 4083.58 960.356 4084.83 969.452 4087.32C978.549 4089.64 986.04 4092.76 991.926 4096.69L983.632 4111.94C977.39 4107.66 970.701 4104.63 963.566 4102.84C956.432 4100.88 949.297 4099.9 942.163 4099.9C929.499 4099.9 920.135 4102.13 914.07 4106.59C908.184 4110.87 905.241 4116.4 905.241 4123.18C905.241 4128.53 906.846 4132.72 910.057 4135.75C913.446 4138.78 917.816 4141.19 923.167 4142.97C928.696 4144.58 934.671 4145.92 941.092 4146.99C947.692 4148.06 954.202 4149.4 960.623 4151C967.223 4152.43 973.198 4154.48 978.549 4157.15C984.078 4159.65 988.448 4163.31 991.659 4168.12C995.048 4172.76 996.742 4178.92 996.742 4186.58C996.742 4194.79 994.424 4201.92 989.786 4207.99C985.327 4213.87 978.727 4218.51 969.988 4221.9C961.426 4225.11 950.992 4226.72 938.684 4226.72ZM1103.49 4112.74C1099.57 4112.74 1096.18 4111.31 1093.33 4108.46C1090.65 4105.61 1089.31 4102.13 1089.31 4098.03C1089.31 4093.75 1090.65 4090.27 1093.33 4087.59C1096.18 4084.92 1099.57 4083.58 1103.49 4083.58C1107.42 4083.58 1110.72 4084.92 1113.39 4087.59C1116.25 4090.27 1117.67 4093.75 1117.67 4098.03C1117.67 4102.13 1116.25 4105.61 1113.39 4108.46C1110.72 4111.31 1107.42 4112.74 1103.49 4112.74ZM1103.49 4226.72C1099.57 4226.72 1096.18 4225.29 1093.33 4222.44C1090.65 4219.58 1089.31 4216.1 1089.31 4212C1089.31 4207.72 1090.65 4204.24 1093.33 4201.57C1096.18 4198.89 1099.57 4197.55 1103.49 4197.55C1107.42 4197.55 1110.72 4198.89 1113.39 4201.57C1116.25 4204.24 1117.67 4207.72 1117.67 4212C1117.67 4216.1 1116.25 4219.58 1113.39 4222.44C1110.72 4225.29 1107.42 4226.72 1103.49 4226.72ZM1341.71 4226.98C1328.15 4226.98 1315.31 4224.84 1303.18 4220.56C1291.23 4216.1 1281.6 4210.22 1274.28 4202.91L1283.65 4187.66C1289.71 4193.9 1297.83 4199.07 1307.99 4203.17C1318.34 4207.28 1329.58 4209.33 1341.71 4209.33C1357.22 4209.33 1369.08 4205.94 1377.29 4199.16C1385.67 4192.38 1389.86 4183.29 1389.86 4171.87C1389.86 4160.45 1385.76 4151.36 1377.56 4144.58C1369.53 4137.8 1356.78 4134.41 1339.3 4134.41H1325.92V4120.23L1383.71 4047.73L1386.39 4055.22H1282.04V4038.1H1402.44V4051.74L1344.65 4124.25L1335.28 4118.09H1342.51C1364.98 4118.09 1381.75 4123.09 1392.81 4133.08C1404.04 4143.06 1409.66 4155.91 1409.66 4171.6C1409.66 4182.13 1407.17 4191.58 1402.17 4199.96C1397.18 4208.35 1389.6 4214.95 1379.43 4219.76C1369.44 4224.58 1356.87 4226.98 1341.71 4226.98ZM1453.39 4225.38V4038.1H1529.64C1549.62 4038.1 1567.1 4042.11 1582.08 4050.14C1597.25 4057.98 1609.02 4068.95 1617.4 4083.04C1625.78 4097.13 1629.98 4113.37 1629.98 4131.74C1629.98 4150.11 1625.78 4166.34 1617.4 4180.43C1609.02 4194.52 1597.25 4205.58 1582.08 4213.61C1567.1 4221.46 1549.62 4225.38 1529.64 4225.38H1453.39ZM1473.19 4208.26H1528.57C1545.16 4208.26 1559.52 4205.05 1571.65 4198.62C1583.96 4192.03 1593.5 4183.02 1600.28 4171.6C1607.06 4160.01 1610.44 4146.72 1610.44 4131.74C1610.44 4116.58 1607.06 4103.29 1600.28 4091.87C1593.5 4080.46 1583.96 4071.54 1571.65 4065.12C1559.52 4058.52 1545.16 4055.22 1528.57 4055.22H1473.19V4208.26ZM1710.89 4226.98C1697.33 4226.98 1684.49 4224.84 1672.36 4220.56C1660.41 4216.1 1650.78 4210.22 1643.47 4202.91L1652.83 4187.66C1658.9 4193.9 1667.01 4199.07 1677.18 4203.17C1687.52 4207.28 1698.76 4209.33 1710.89 4209.33C1726.41 4209.33 1738.27 4205.94 1746.47 4199.16C1754.86 4192.38 1759.05 4183.29 1759.05 4171.87C1759.05 4160.45 1754.95 4151.36 1746.74 4144.58C1738.71 4137.8 1725.96 4134.41 1708.48 4134.41H1695.1V4120.23L1752.89 4047.73L1755.57 4055.22H1651.23V4038.1H1771.62V4051.74L1713.83 4124.25L1704.47 4118.09H1711.69C1734.17 4118.09 1750.93 4123.09 1761.99 4133.08C1773.23 4143.06 1778.85 4155.91 1778.85 4171.6C1778.85 4182.13 1776.35 4191.58 1771.36 4199.96C1766.36 4208.35 1758.78 4214.95 1748.61 4219.76C1738.63 4224.58 1726.05 4226.98 1710.89 4226.98ZM1822.58 4225.38V4038.1H1898.83C1918.81 4038.1 1936.29 4042.11 1951.27 4050.14C1966.43 4057.98 1978.2 4068.95 1986.58 4083.04C1994.97 4097.13 1999.16 4113.37 1999.16 4131.74C1999.16 4150.11 1994.97 4166.34 1986.58 4180.43C1978.2 4194.52 1966.43 4205.58 1951.27 4213.61C1936.29 4221.46 1918.81 4225.38 1898.83 4225.38H1822.58ZM1842.38 4208.26H1897.76C1914.35 4208.26 1928.71 4205.05 1940.83 4198.62C1953.14 4192.03 1962.68 4183.02 1969.46 4171.6C1976.24 4160.01 1979.63 4146.72 1979.63 4131.74C1979.63 4116.58 1976.24 4103.29 1969.46 4091.87C1962.68 4080.46 1953.14 4071.54 1940.83 4065.12C1928.71 4058.52 1914.35 4055.22 1897.76 4055.22H1842.38V4208.26ZM2080.07 4226.98C2066.52 4226.98 2053.68 4224.84 2041.55 4220.56C2029.6 4216.1 2019.96 4210.22 2012.65 4202.91L2022.02 4187.66C2028.08 4193.9 2036.2 4199.07 2046.36 4203.17C2056.71 4207.28 2067.94 4209.33 2080.07 4209.33C2095.59 4209.33 2107.45 4205.94 2115.66 4199.16C2124.04 4192.38 2128.23 4183.29 2128.23 4171.87C2128.23 4160.45 2124.13 4151.36 2115.93 4144.58C2107.9 4137.8 2095.15 4134.41 2077.67 4134.41H2064.29V4120.23L2122.08 4047.73L2124.75 4055.22H2020.41V4038.1H2140.81V4051.74L2083.02 4124.25L2073.65 4118.09H2080.88C2103.35 4118.09 2120.12 4123.09 2131.18 4133.08C2142.41 4143.06 2148.03 4155.91 2148.03 4171.6C2148.03 4182.13 2145.53 4191.58 2140.54 4199.96C2135.55 4208.35 2127.96 4214.95 2117.8 4219.76C2107.81 4224.58 2095.23 4226.98 2080.07 4226.98ZM2191.76 4225.38V4038.1H2268.01C2287.99 4038.1 2305.47 4042.11 2320.45 4050.14C2335.61 4057.98 2347.39 4068.95 2355.77 4083.04C2364.15 4097.13 2368.34 4113.37 2368.34 4131.74C2368.34 4150.11 2364.15 4166.34 2355.77 4180.43C2347.39 4194.52 2335.61 4205.58 2320.45 4213.61C2305.47 4221.46 2287.99 4225.38 2268.01 4225.38H2191.76ZM2211.56 4208.26H2266.94C2283.53 4208.26 2297.89 4205.05 2310.02 4198.62C2322.33 4192.03 2331.87 4183.02 2338.65 4171.6C2345.42 4160.01 2348.81 4146.72 2348.81 4131.74C2348.81 4116.58 2345.42 4103.29 2338.65 4091.87C2331.87 4080.46 2322.33 4071.54 2310.02 4065.12C2297.89 4058.52 2283.53 4055.22 2266.94 4055.22H2211.56V4208.26Z" fill="#3D3D3D"/>
<path d="M2500.48 4128.79H2599.48V4145.92H2500.48V4128.79ZM2502.62 4225.38H2482.82V4038.1H2611.25V4055.22H2502.62V4225.38ZM2669.79 4128.79H2768.78V4145.92H2669.79V4128.79ZM2671.93 4225.38H2652.13V4038.1H2780.56V4055.22H2671.93V4225.38ZM2821.44 4225.38V4038.1H2902.24C2923.11 4038.1 2939.25 4042.29 2950.67 4050.67C2962.26 4059.05 2968.06 4070.92 2968.06 4086.25C2968.06 4096.42 2965.65 4104.98 2960.83 4111.94C2956.19 4118.9 2949.77 4124.16 2941.57 4127.72C2933.54 4131.29 2924.71 4133.08 2915.08 4133.08L2919.63 4126.65C2931.58 4126.65 2941.84 4128.53 2950.4 4132.27C2959.14 4135.84 2965.92 4141.28 2970.73 4148.59C2975.55 4155.73 2977.95 4164.65 2977.95 4175.35C2977.95 4191.22 2972.07 4203.53 2960.3 4212.27C2948.7 4221.01 2931.13 4225.38 2907.59 4225.38H2821.44ZM2841.24 4209.06H2907.32C2923.73 4209.06 2936.31 4206.29 2945.05 4200.77C2953.79 4195.06 2958.16 4186.05 2958.16 4173.74C2958.16 4161.61 2953.79 4152.78 2945.05 4147.26C2936.31 4141.55 2923.73 4138.69 2907.32 4138.69H2839.1V4122.37H2900.9C2915.88 4122.37 2927.48 4119.52 2935.68 4113.81C2944.07 4108.1 2948.26 4099.63 2948.26 4088.4C2948.26 4076.98 2944.07 4068.51 2935.68 4062.98C2927.48 4057.27 2915.88 4054.42 2900.9 4054.42H2841.24V4209.06ZM3040.8 4128.79H3139.8V4145.92H3040.8V4128.79ZM3042.94 4225.38H3023.15V4038.1H3151.57V4055.22H3042.94V4225.38ZM3246.85 4226.98C3232.41 4226.98 3219.56 4223.24 3208.33 4215.75C3197.09 4208.08 3188.26 4197.2 3181.84 4183.11C3175.42 4168.84 3172.21 4151.71 3172.21 4131.74C3172.21 4111.76 3175.42 4094.73 3181.84 4080.64C3188.26 4066.37 3197.09 4055.49 3208.33 4048C3219.56 4040.33 3232.41 4036.49 3246.85 4036.49C3261.3 4036.49 3274.14 4040.33 3285.38 4048C3296.62 4055.49 3305.45 4066.37 3311.87 4080.64C3318.47 4094.73 3321.77 4111.76 3321.77 4131.74C3321.77 4151.71 3318.47 4168.84 3311.87 4183.11C3305.45 4197.2 3296.62 4208.08 3285.38 4215.75C3274.14 4223.24 3261.3 4226.98 3246.85 4226.98ZM3246.85 4209.33C3257.91 4209.33 3267.54 4206.38 3275.75 4200.5C3283.95 4194.43 3290.37 4185.69 3295.01 4174.28C3299.65 4162.68 3301.97 4148.5 3301.97 4131.74C3301.97 4114.97 3299.65 4100.88 3295.01 4089.47C3290.37 4077.87 3283.95 4069.13 3275.75 4063.25C3267.54 4057.18 3257.91 4054.15 3246.85 4054.15C3236.15 4054.15 3226.61 4057.18 3218.23 4063.25C3209.84 4069.13 3203.33 4077.87 3198.69 4089.47C3194.06 4100.88 3191.74 4114.97 3191.74 4131.74C3191.74 4148.5 3194.06 4162.68 3198.69 4174.28C3203.33 4185.69 3209.84 4194.43 3218.23 4200.5C3226.61 4206.38 3236.15 4209.33 3246.85 4209.33ZM3365.94 4225.38V4038.1H3446.74C3467.61 4038.1 3483.75 4042.29 3495.17 4050.67C3506.76 4059.05 3512.56 4070.92 3512.56 4086.25C3512.56 4096.42 3510.15 4104.98 3505.33 4111.94C3500.7 4118.9 3494.27 4124.16 3486.07 4127.72C3478.04 4131.29 3469.21 4133.08 3459.58 4133.08L3464.13 4126.65C3476.08 4126.65 3486.34 4128.53 3494.9 4132.27C3503.64 4135.84 3510.42 4141.28 3515.23 4148.59C3520.05 4155.73 3522.46 4164.65 3522.46 4175.35C3522.46 4191.22 3516.57 4203.53 3504.8 4212.27C3493.2 4221.01 3475.64 4225.38 3452.09 4225.38H3365.94ZM3385.74 4209.06H3451.82C3468.23 4209.06 3480.81 4206.29 3489.55 4200.77C3498.29 4195.06 3502.66 4186.05 3502.66 4173.74C3502.66 4161.61 3498.29 4152.78 3489.55 4147.26C3480.81 4141.55 3468.23 4138.69 3451.82 4138.69H3383.6V4122.37H3445.4C3460.38 4122.37 3471.98 4119.52 3480.18 4113.81C3488.57 4108.1 3492.76 4099.63 3492.76 4088.4C3492.76 4076.98 3488.57 4068.51 3480.18 4062.98C3471.98 4057.27 3460.38 4054.42 3445.4 4054.42H3385.74V4209.06Z" fill="#FFBF0B"/>
<path d="M3655.33 4128.79H3754.32V4145.92H3655.33V4128.79ZM3657.47 4225.38H3637.67V4038.1H3766.09V4055.22H3657.47V4225.38ZM3806.98 4225.38V4038.1H3883.23C3903.2 4038.1 3920.68 4042.11 3935.67 4050.14C3950.83 4057.98 3962.6 4068.95 3970.98 4083.04C3979.37 4097.13 3983.56 4113.37 3983.56 4131.74C3983.56 4150.11 3979.37 4166.34 3970.98 4180.43C3962.6 4194.52 3950.83 4205.58 3935.67 4213.61C3920.68 4221.46 3903.2 4225.38 3883.23 4225.38H3806.98ZM3826.77 4208.26H3882.16C3898.74 4208.26 3913.1 4205.05 3925.23 4198.62C3937.54 4192.03 3947.08 4183.02 3953.86 4171.6C3960.64 4160.01 3964.03 4146.72 3964.03 4131.74C3964.03 4116.58 3960.64 4103.29 3953.86 4091.87C3947.08 4080.46 3937.54 4071.54 3925.23 4065.12C3913.1 4058.52 3898.74 4055.22 3882.16 4055.22H3826.77V4208.26ZM4041.46 4225.38V4046.12L4050.02 4055.22H3997.31V4038.1H4060.72V4225.38H4041.46ZM4138.4 4225.38L4219.2 4046.66L4225.08 4055.22H4109.23L4119.13 4045.85V4090.27H4100.14V4038.1H4237.66V4051.74L4159.27 4225.38H4138.4ZM4329.24 4226.98C4314.26 4226.98 4301.33 4224.84 4290.45 4220.56C4279.75 4216.28 4271.45 4210.13 4265.57 4202.1C4259.86 4193.9 4257 4184.27 4257 4173.21C4257 4162.51 4259.77 4153.41 4265.3 4145.92C4271.01 4138.25 4279.21 4132.36 4289.91 4128.26C4300.79 4124.16 4313.9 4122.11 4329.24 4122.11C4344.4 4122.11 4357.42 4124.16 4368.3 4128.26C4379.18 4132.36 4387.48 4138.25 4393.19 4145.92C4399.07 4153.41 4402.01 4162.51 4402.01 4173.21C4402.01 4184.27 4399.07 4193.9 4393.19 4202.1C4387.3 4210.13 4378.92 4216.28 4368.04 4220.56C4357.16 4224.84 4344.22 4226.98 4329.24 4226.98ZM4329.24 4210.66C4345.83 4210.66 4358.76 4207.28 4368.04 4200.5C4377.49 4193.72 4382.22 4184.53 4382.22 4172.94C4382.22 4161.35 4377.49 4152.25 4368.04 4145.65C4358.76 4138.87 4345.83 4135.48 4329.24 4135.48C4312.65 4135.48 4299.72 4138.87 4290.45 4145.65C4281.17 4152.25 4276.53 4161.35 4276.53 4172.94C4276.53 4184.53 4281.17 4193.72 4290.45 4200.5C4299.72 4207.28 4312.65 4210.66 4329.24 4210.66ZM4329.24 4133.08C4315.33 4133.08 4303.47 4131.2 4293.66 4127.46C4284.03 4123.71 4276.62 4118.36 4271.45 4111.4C4266.28 4104.27 4263.69 4095.8 4263.69 4085.99C4263.69 4075.64 4266.37 4066.81 4271.72 4059.5C4277.25 4052.01 4284.92 4046.3 4294.73 4042.38C4304.54 4038.45 4316.04 4036.49 4329.24 4036.49C4342.44 4036.49 4353.95 4038.45 4363.76 4042.38C4373.74 4046.3 4381.5 4052.01 4387.03 4059.5C4392.56 4066.81 4395.33 4075.64 4395.33 4085.99C4395.33 4095.8 4392.74 4104.27 4387.57 4111.4C4382.39 4118.36 4374.81 4123.71 4364.83 4127.46C4355.02 4131.2 4343.15 4133.08 4329.24 4133.08ZM4329.24 4120.23C4343.87 4120.23 4355.28 4117.2 4363.49 4111.14C4371.69 4105.07 4375.79 4096.96 4375.79 4086.79C4375.79 4076.09 4371.51 4067.79 4362.95 4061.91C4354.57 4055.84 4343.33 4052.81 4329.24 4052.81C4315.15 4052.81 4303.91 4055.84 4295.53 4061.91C4287.15 4067.79 4282.96 4076 4282.96 4086.52C4282.96 4096.87 4286.97 4105.07 4295 4111.14C4303.2 4117.2 4314.62 4120.23 4329.24 4120.23ZM4425.21 4225.38V4211.73L4503.07 4135.48C4510.2 4128.53 4515.55 4122.46 4519.12 4117.29C4522.69 4111.94 4525.09 4106.95 4526.34 4102.31C4527.59 4097.67 4528.22 4093.3 4528.22 4089.2C4528.22 4078.32 4524.47 4069.76 4516.98 4063.51C4509.67 4057.27 4498.78 4054.15 4484.34 4054.15C4473.28 4054.15 4463.47 4055.84 4454.91 4059.23C4446.52 4062.62 4439.3 4067.88 4433.24 4075.02L4419.59 4063.25C4426.9 4054.68 4436.27 4048.08 4447.68 4043.45C4459.1 4038.81 4471.85 4036.49 4485.94 4036.49C4498.61 4036.49 4509.58 4038.54 4518.85 4042.64C4528.13 4046.57 4535.26 4052.37 4540.25 4060.04C4545.43 4067.7 4548.01 4076.71 4548.01 4087.06C4548.01 4093.12 4547.12 4099.1 4545.34 4104.98C4543.73 4110.87 4540.7 4117.11 4536.24 4123.71C4531.96 4130.13 4525.63 4137.45 4517.25 4145.65L4445.81 4215.75L4440.46 4208.26H4556.58V4225.38H4425.21Z" fill="#FD1782"/>
<path d="M1849.39 7128.13V6940.85H1926.45C1943.04 6940.85 1957.22 6943.53 1968.99 6948.88C1980.94 6954.23 1990.12 6961.9 1996.55 6971.89C2002.97 6981.88 2006.18 6993.74 2006.18 7007.47C2006.18 7021.2 2002.97 7033.07 1996.55 7043.05C1990.12 7052.86 1980.94 7060.45 1968.99 7065.8C1957.22 7070.97 1943.04 7073.56 1926.45 7073.56H1868.66L1884.18 7057.77V7128.13H1849.39ZM1971.93 7128.13L1924.58 7060.18H1961.76L2009.39 7128.13H1971.93ZM1884.18 7061.52L1868.66 7044.93H1924.84C1940.18 7044.93 1951.69 7041.63 1959.36 7035.03C1967.2 7028.43 1971.13 7019.24 1971.13 7007.47C1971.13 6995.52 1967.2 6986.33 1959.36 6979.91C1951.69 6973.49 1940.18 6970.28 1924.84 6970.28H1868.66L1884.18 6953.16V7061.52ZM2109.03 7130.01C2093.16 7130.01 2079.25 7126.89 2067.3 7120.64C2055.53 7114.22 2046.34 7105.48 2039.74 7094.42C2033.32 7083.37 2030.11 7070.79 2030.11 7056.7C2030.11 7042.43 2033.23 7029.86 2039.47 7018.98C2045.89 7007.92 2054.63 6999.27 2065.69 6993.02C2076.93 6986.78 2089.68 6983.66 2103.95 6983.66C2117.86 6983.66 2130.26 6986.69 2141.14 6992.76C2152.02 6998.82 2160.58 7007.38 2166.83 7018.44C2173.07 7029.5 2176.19 7042.52 2176.19 7057.5C2176.19 7058.93 2176.1 7060.53 2175.92 7062.32C2175.92 7064.1 2175.83 7065.8 2175.65 7067.4H2056.6V7045.2H2158L2144.89 7052.15C2145.06 7043.95 2143.37 7036.72 2139.8 7030.48C2136.24 7024.24 2131.33 7019.33 2125.09 7015.76C2119.02 7012.2 2111.98 7010.41 2103.95 7010.41C2095.75 7010.41 2088.52 7012.2 2082.28 7015.76C2076.22 7019.33 2071.4 7024.33 2067.83 7030.75C2064.44 7036.99 2062.75 7044.39 2062.75 7052.95V7058.3C2062.75 7066.87 2064.71 7074.45 2068.64 7081.05C2072.56 7087.65 2078.09 7092.73 2085.22 7096.3C2092.36 7099.86 2100.56 7101.65 2109.84 7101.65C2117.86 7101.65 2125.09 7100.4 2131.51 7097.9C2137.93 7095.4 2143.64 7091.48 2148.63 7086.13L2166.56 7106.73C2160.14 7114.22 2152.02 7120.02 2142.21 7124.12C2132.58 7128.05 2121.52 7130.01 2109.03 7130.01ZM2268.78 7130.01C2255.05 7130.01 2242.65 7126.98 2231.59 7120.91C2220.71 7114.67 2212.15 7106.11 2205.91 7095.23C2199.66 7084.35 2196.54 7071.5 2196.54 7056.7C2196.54 7041.9 2199.66 7029.05 2205.91 7018.17C2212.15 7007.29 2220.71 6998.82 2231.59 6992.76C2242.65 6986.69 2255.05 6983.66 2268.78 6983.66C2280.73 6983.66 2291.43 6986.33 2300.89 6991.69C2310.34 6996.86 2317.83 7004.8 2323.36 7015.5C2328.89 7026.2 2331.65 7039.93 2331.65 7056.7C2331.65 7073.29 2328.98 7087.02 2323.63 7097.9C2318.28 7108.6 2310.87 7116.63 2301.42 7121.98C2291.97 7127.33 2281.09 7130.01 2268.78 7130.01ZM2272.79 7101.38C2280.82 7101.38 2287.95 7099.6 2294.2 7096.03C2300.62 7092.46 2305.7 7087.29 2309.45 7080.51C2313.37 7073.73 2315.33 7065.8 2315.33 7056.7C2315.33 7047.42 2313.37 7039.49 2309.45 7032.89C2305.7 7026.11 2300.62 7020.94 2294.2 7017.37C2287.95 7013.8 2280.82 7012.02 2272.79 7012.02C2264.77 7012.02 2257.54 7013.8 2251.12 7017.37C2244.88 7020.94 2239.8 7026.11 2235.87 7032.89C2232.13 7039.49 2230.25 7047.42 2230.25 7056.7C2230.25 7065.8 2232.13 7073.73 2235.87 7080.51C2239.8 7087.29 2244.88 7092.46 2251.12 7096.03C2257.54 7099.6 2264.77 7101.38 2272.79 7101.38ZM2316.14 7128.13V7094.42L2317.47 7056.43L2314.8 7018.44V6929.61H2347.97V7128.13H2316.14ZM2459.15 7130.01C2443.27 7130.01 2429.36 7126.89 2417.41 7120.64C2405.64 7114.22 2396.45 7105.48 2389.85 7094.42C2383.43 7083.37 2380.22 7070.79 2380.22 7056.7C2380.22 7042.43 2383.34 7029.86 2389.58 7018.98C2396 7007.92 2404.74 6999.27 2415.8 6993.02C2427.04 6986.78 2439.79 6983.66 2454.06 6983.66C2467.97 6983.66 2480.37 6986.69 2491.25 6992.76C2502.13 6998.82 2510.69 7007.38 2516.94 7018.44C2523.18 7029.5 2526.3 7042.52 2526.3 7057.5C2526.3 7058.93 2526.21 7060.53 2526.03 7062.32C2526.03 7064.1 2525.94 7065.8 2525.77 7067.4H2406.71V7045.2H2508.11L2495 7052.15C2495.18 7043.95 2493.48 7036.72 2489.91 7030.48C2486.35 7024.24 2481.44 7019.33 2475.2 7015.76C2469.13 7012.2 2462.09 7010.41 2454.06 7010.41C2445.86 7010.41 2438.63 7012.2 2432.39 7015.76C2426.33 7019.33 2421.51 7024.33 2417.94 7030.75C2414.55 7036.99 2412.86 7044.39 2412.86 7052.95V7058.3C2412.86 7066.87 2414.82 7074.45 2418.75 7081.05C2422.67 7087.65 2428.2 7092.73 2435.33 7096.3C2442.47 7099.86 2450.67 7101.65 2459.95 7101.65C2467.97 7101.65 2475.2 7100.4 2481.62 7097.9C2488.04 7095.4 2493.75 7091.48 2498.74 7086.13L2516.67 7106.73C2510.25 7114.22 2502.13 7120.02 2492.32 7124.12C2482.69 7128.05 2471.63 7130.01 2459.15 7130.01ZM2562.97 7128.13V6977.24C2562.97 6962.26 2567.34 6950.3 2576.08 6941.39C2585 6932.29 2597.67 6927.74 2614.07 6927.74C2619.96 6927.74 2625.49 6928.37 2630.66 6929.61C2636.01 6930.86 2640.47 6932.83 2644.04 6935.5L2634.94 6960.65C2632.45 6958.69 2629.59 6957.26 2626.38 6956.37C2623.17 6955.3 2619.87 6954.76 2616.48 6954.76C2609.53 6954.76 2604.26 6956.73 2600.7 6960.65C2597.13 6964.4 2595.35 6970.1 2595.35 6977.77V6993.83L2596.42 7008.81V7128.13H2562.97ZM2539.43 7013.09V6986.33H2634.68V7013.09H2539.43ZM2658.22 7128.13V6985.26H2691.66V7128.13H2658.22ZM2675.08 6961.72C2668.83 6961.72 2663.66 6959.76 2659.56 6955.83C2655.63 6951.91 2653.67 6947.18 2653.67 6941.65C2653.67 6935.95 2655.63 6931.22 2659.56 6927.47C2663.66 6923.55 2668.83 6921.59 2675.08 6921.59C2681.32 6921.59 2686.4 6923.46 2690.33 6927.21C2694.43 6930.77 2696.48 6935.32 2696.48 6940.85C2696.48 6946.74 2694.52 6951.73 2690.59 6955.83C2686.67 6959.76 2681.5 6961.72 2675.08 6961.72ZM2816.64 6983.66C2828.05 6983.66 2838.22 6985.89 2847.14 6990.35C2856.23 6994.81 2863.37 7001.67 2868.54 7010.95C2873.71 7020.05 2876.3 7031.82 2876.3 7046.27V7128.13H2842.86V7050.55C2842.86 7037.88 2839.82 7028.43 2833.76 7022.19C2827.87 7015.94 2819.58 7012.82 2808.88 7012.82C2801.03 7012.82 2794.07 7014.43 2788.01 7017.64C2781.95 7020.85 2777.22 7025.66 2773.83 7032.09C2770.62 7038.33 2769.01 7046.27 2769.01 7055.9V7128.13H2735.57V6985.26H2767.41V7023.79L2761.79 7012.02C2766.78 7002.92 2774.01 6995.97 2783.46 6991.15C2793.09 6986.16 2804.15 6983.66 2816.64 6983.66ZM2918.73 7128.13V6985.26H2952.17V7128.13H2918.73ZM2935.58 6961.72C2929.34 6961.72 2924.17 6959.76 2920.06 6955.83C2916.14 6951.91 2914.18 6947.18 2914.18 6941.65C2914.18 6935.95 2916.14 6931.22 2920.06 6927.47C2924.17 6923.55 2929.34 6921.59 2935.58 6921.59C2941.82 6921.59 2946.91 6923.46 2950.83 6927.21C2954.93 6930.77 2956.98 6935.32 2956.98 6940.85C2956.98 6946.74 2955.02 6951.73 2951.1 6955.83C2947.17 6959.76 2942 6961.72 2935.58 6961.72ZM3077.13 6983.66C3088.55 6983.66 3098.71 6985.89 3107.63 6990.35C3116.73 6994.81 3123.86 7001.67 3129.03 7010.95C3134.21 7020.05 3136.79 7031.82 3136.79 7046.27V7128.13H3103.35V7050.55C3103.35 7037.88 3100.32 7028.43 3094.25 7022.19C3088.37 7015.94 3080.07 7012.82 3069.37 7012.82C3061.52 7012.82 3054.57 7014.43 3048.5 7017.64C3042.44 7020.85 3037.71 7025.66 3034.32 7032.09C3031.11 7038.33 3029.51 7046.27 3029.51 7055.9V7128.13H2996.06V6985.26H3027.9V7023.79L3022.28 7012.02C3027.28 7002.92 3034.5 6995.97 3043.95 6991.15C3053.59 6986.16 3064.65 6983.66 3077.13 6983.66ZM3244.23 7181.91C3231.03 7181.91 3218.1 7180.13 3205.43 7176.56C3192.95 7173.17 3182.69 7168.18 3174.66 7161.58L3189.65 7136.43C3195.89 7141.6 3203.74 7145.7 3213.19 7148.74C3222.82 7151.95 3232.54 7153.55 3242.35 7153.55C3258.05 7153.55 3269.55 7149.9 3276.87 7142.58C3284.18 7135.45 3287.84 7124.66 3287.84 7110.21V7084.79L3290.51 7052.42L3289.44 7020.05V6985.26H3321.28V7106.46C3321.28 7132.33 3314.68 7151.32 3301.48 7163.45C3288.28 7175.76 3269.2 7181.91 3244.23 7181.91ZM3239.95 7121.71C3226.39 7121.71 3214.08 7118.86 3203.02 7113.15C3192.14 7107.27 3183.49 7099.15 3177.07 7088.81C3170.83 7078.46 3167.71 7066.33 3167.71 7052.42C3167.71 7038.68 3170.83 7026.65 3177.07 7016.3C3183.49 7005.95 3192.14 6997.93 3203.02 6992.22C3214.08 6986.51 3226.39 6983.66 3239.95 6983.66C3252.07 6983.66 3262.95 6986.07 3272.59 6990.88C3282.22 6995.7 3289.89 7003.19 3295.6 7013.36C3301.48 7023.52 3304.42 7036.54 3304.42 7052.42C3304.42 7068.29 3301.48 7081.4 3295.6 7091.75C3289.89 7101.92 3282.22 7109.5 3272.59 7114.49C3262.95 7119.31 3252.07 7121.71 3239.95 7121.71ZM3245.03 7093.35C3253.41 7093.35 3260.9 7091.66 3267.5 7088.27C3274.1 7084.7 3279.19 7079.89 3282.75 7073.82C3286.5 7067.58 3288.37 7060.45 3288.37 7052.42C3288.37 7044.39 3286.5 7037.35 3282.75 7031.28C3279.19 7025.04 3274.1 7020.31 3267.5 7017.1C3260.9 7013.71 3253.41 7012.02 3245.03 7012.02C3236.65 7012.02 3229.07 7013.71 3222.29 7017.1C3215.69 7020.31 3210.52 7025.04 3206.77 7031.28C3203.2 7037.35 3201.42 7044.39 3201.42 7052.42C3201.42 7060.45 3203.2 7067.58 3206.77 7073.82C3210.52 7079.89 3215.69 7084.7 3222.29 7088.27C3229.07 7091.66 3236.65 7093.35 3245.03 7093.35ZM3520.26 6983.66C3531.67 6983.66 3541.84 6985.89 3550.76 6990.35C3559.85 6994.81 3566.99 7001.67 3572.16 7010.95C3577.33 7020.05 3579.92 7031.82 3579.92 7046.27V7128.13H3546.48V7050.55C3546.48 7037.88 3543.44 7028.43 3537.38 7022.19C3531.49 7015.94 3523.2 7012.82 3512.5 7012.82C3504.65 7012.82 3497.69 7014.43 3491.63 7017.64C3485.56 7020.85 3480.84 7025.66 3477.45 7032.09C3474.24 7038.33 3472.63 7046.27 3472.63 7055.9V7128.13H3439.19V6929.61H3472.63V7023.79L3465.41 7012.02C3470.4 7002.92 3477.63 6995.97 3487.08 6991.15C3496.71 6986.16 3507.77 6983.66 3520.26 6983.66ZM3682.81 7130.01C3670.68 7130.01 3659.98 7127.78 3650.7 7123.32C3641.43 7118.68 3634.21 7111.73 3629.03 7102.45C3623.86 7093 3621.27 7081.14 3621.27 7066.87V6985.26H3654.72V7062.32C3654.72 7075.16 3657.57 7084.79 3663.28 7091.21C3669.17 7097.46 3677.46 7100.58 3688.16 7100.58C3696.01 7100.58 3702.79 7098.97 3708.49 7095.76C3714.38 7092.55 3718.93 7087.74 3722.14 7081.31C3725.53 7074.89 3727.22 7066.96 3727.22 7057.5V6985.26H3760.67V7128.13H3728.83V7089.61L3734.45 7101.38C3729.63 7110.65 3722.59 7117.79 3713.31 7122.78C3704.04 7127.6 3693.87 7130.01 3682.81 7130.01ZM3984.78 6983.66C3996.2 6983.66 4006.27 6985.89 4015.01 6990.35C4023.93 6994.81 4030.89 7001.67 4035.88 7010.95C4040.88 7020.05 4043.37 7031.82 4043.37 7046.27V7128.13H4009.93V7050.55C4009.93 7037.88 4007.17 7028.43 4001.64 7022.19C3996.11 7015.94 3988.17 7012.82 3977.83 7012.82C3970.51 7012.82 3964 7014.43 3958.29 7017.64C3952.76 7020.85 3948.39 7025.57 3945.18 7031.82C3942.15 7038.06 3940.64 7046 3940.64 7055.63V7128.13H3907.19V7050.55C3907.19 7037.88 3904.43 7028.43 3898.9 7022.19C3893.37 7015.94 3885.43 7012.82 3875.09 7012.82C3867.77 7012.82 3861.26 7014.43 3855.56 7017.64C3850.03 7020.85 3845.66 7025.57 3842.45 7031.82C3839.41 7038.06 3837.9 7046 3837.9 7055.63V7128.13H3804.45V6985.26H3836.29V7023.26L3830.67 7012.02C3835.49 7002.74 3842.45 6995.7 3851.54 6990.88C3860.82 6986.07 3871.34 6983.66 3883.11 6983.66C3896.49 6983.66 3908.08 6986.96 3917.89 6993.56C3927.88 7000.16 3934.48 7010.15 3937.69 7023.52L3924.58 7018.98C3929.22 7008.27 3936.89 6999.71 3947.59 6993.29C3958.29 6986.87 3970.69 6983.66 3984.78 6983.66ZM4174.13 7128.13V7099.24L4172.26 7093.09V7042.52C4172.26 7032.71 4169.32 7025.13 4163.43 7019.78C4157.55 7014.25 4148.63 7011.48 4136.68 7011.48C4128.65 7011.48 4120.71 7012.73 4112.87 7015.23C4105.2 7017.73 4098.69 7021.2 4093.33 7025.66L4080.22 7001.32C4087.89 6995.43 4096.99 6991.06 4107.51 6988.21C4118.22 6985.18 4129.28 6983.66 4140.69 6983.66C4161.38 6983.66 4177.34 6988.65 4188.58 6998.64C4200 7008.45 4205.7 7023.7 4205.7 7044.39V7128.13H4174.13ZM4129.19 7130.01C4118.48 7130.01 4109.12 7128.22 4101.09 7124.66C4093.07 7120.91 4086.82 7115.83 4082.37 7109.41C4078.08 7102.81 4075.94 7095.4 4075.94 7087.2C4075.94 7079.17 4077.82 7071.95 4081.56 7065.53C4085.49 7059.11 4091.82 7054.02 4100.56 7050.28C4109.3 7046.53 4120.89 7044.66 4135.34 7044.66H4176.81V7066.87H4137.75C4126.33 7066.87 4118.66 7068.74 4114.74 7072.48C4110.81 7076.05 4108.85 7080.51 4108.85 7085.86C4108.85 7091.93 4111.26 7096.74 4116.08 7100.31C4120.89 7103.88 4127.58 7105.66 4136.14 7105.66C4144.35 7105.66 4151.66 7103.79 4158.08 7100.04C4164.68 7096.3 4169.41 7090.77 4172.26 7083.45L4177.88 7103.52C4174.67 7111.9 4168.87 7118.41 4160.49 7123.05C4152.28 7127.69 4141.85 7130.01 4129.19 7130.01ZM4329.69 6983.66C4341.11 6983.66 4351.27 6985.89 4360.19 6990.35C4369.29 6994.81 4376.42 7001.67 4381.6 7010.95C4386.77 7020.05 4389.36 7031.82 4389.36 7046.27V7128.13H4355.91V7050.55C4355.91 7037.88 4352.88 7028.43 4346.82 7022.19C4340.93 7015.94 4332.64 7012.82 4321.93 7012.82C4314.09 7012.82 4307.13 7014.43 4301.06 7017.64C4295 7020.85 4290.27 7025.66 4286.88 7032.09C4283.67 7038.33 4282.07 7046.27 4282.07 7055.9V7128.13H4248.63V6985.26H4280.46V7023.79L4274.84 7012.02C4279.84 7002.92 4287.06 6995.97 4296.52 6991.15C4306.15 6986.16 4317.21 6983.66 4329.69 6983.66ZM4571.27 7130.01C4556.29 7130.01 4542.91 7126.89 4531.14 7120.64C4519.54 7114.22 4510.45 7105.48 4503.85 7094.42C4497.25 7083.37 4493.95 7070.79 4493.95 7056.7C4493.95 7042.43 4497.25 7029.86 4503.85 7018.98C4510.45 7007.92 4519.54 6999.27 4531.14 6993.02C4542.91 6986.78 4556.29 6983.66 4571.27 6983.66C4585.18 6983.66 4597.4 6986.51 4607.92 6992.22C4618.63 6997.75 4626.74 7005.95 4632.27 7016.83L4606.59 7031.82C4602.31 7025.04 4597.04 7020.05 4590.8 7016.83C4584.74 7013.62 4578.14 7012.02 4571 7012.02C4562.8 7012.02 4555.4 7013.8 4548.8 7017.37C4542.2 7020.94 4537.02 7026.11 4533.28 7032.89C4529.53 7039.49 4527.66 7047.42 4527.66 7056.7C4527.66 7065.97 4529.53 7074 4533.28 7080.78C4537.02 7087.38 4542.2 7092.46 4548.8 7096.03C4555.4 7099.6 4562.8 7101.38 4571 7101.38C4578.14 7101.38 4584.74 7099.77 4590.8 7096.56C4597.04 7093.35 4602.31 7088.36 4606.59 7081.58L4632.27 7096.56C4626.74 7107.27 4618.63 7115.56 4607.92 7121.45C4597.4 7127.15 4585.18 7130.01 4571.27 7130.01ZM4723.3 7130.01C4708.68 7130.01 4695.66 7126.89 4684.24 7120.64C4672.83 7114.22 4663.82 7105.48 4657.22 7094.42C4650.62 7083.37 4647.32 7070.79 4647.32 7056.7C4647.32 7042.43 4650.62 7029.86 4657.22 7018.98C4663.82 7007.92 4672.83 6999.27 4684.24 6993.02C4695.66 6986.78 4708.68 6983.66 4723.3 6983.66C4738.11 6983.66 4751.22 6986.78 4762.63 6993.02C4774.23 6999.27 4783.23 7007.83 4789.65 7018.71C4796.25 7029.59 4799.55 7042.25 4799.55 7056.7C4799.55 7070.79 4796.25 7083.37 4789.65 7094.42C4783.23 7105.48 4774.23 7114.22 4762.63 7120.64C4751.22 7126.89 4738.11 7130.01 4723.3 7130.01ZM4723.3 7101.38C4731.51 7101.38 4738.82 7099.6 4745.24 7096.03C4751.66 7092.46 4756.66 7087.29 4760.22 7080.51C4763.97 7073.73 4765.84 7065.8 4765.84 7056.7C4765.84 7047.42 4763.97 7039.49 4760.22 7032.89C4756.66 7026.11 4751.66 7020.94 4745.24 7017.37C4738.82 7013.8 4731.6 7012.02 4723.57 7012.02C4715.37 7012.02 4708.05 7013.8 4701.63 7017.37C4695.39 7020.94 4690.39 7026.11 4686.65 7032.89C4682.9 7039.49 4681.03 7047.42 4681.03 7056.7C4681.03 7065.8 4682.9 7073.73 4686.65 7080.51C4690.39 7087.29 4695.39 7092.46 4701.63 7096.03C4708.05 7099.6 4715.28 7101.38 4723.3 7101.38ZM5011.86 6983.66C5023.28 6983.66 5033.35 6985.89 5042.09 6990.35C5051.01 6994.81 5057.97 7001.67 5062.96 7010.95C5067.96 7020.05 5070.45 7031.82 5070.45 7046.27V7128.13H5037.01V7050.55C5037.01 7037.88 5034.25 7028.43 5028.72 7022.19C5023.19 7015.94 5015.25 7012.82 5004.9 7012.82C4997.59 7012.82 4991.08 7014.43 4985.37 7017.64C4979.84 7020.85 4975.47 7025.57 4972.26 7031.82C4969.23 7038.06 4967.72 7046 4967.72 7055.63V7128.13H4934.27V7050.55C4934.27 7037.88 4931.51 7028.43 4925.98 7022.19C4920.45 7015.94 4912.51 7012.82 4902.17 7012.82C4894.85 7012.82 4888.34 7014.43 4882.64 7017.64C4877.11 7020.85 4872.74 7025.57 4869.53 7031.82C4866.49 7038.06 4864.98 7046 4864.98 7055.63V7128.13H4831.53V6985.26H4863.37V7023.26L4857.75 7012.02C4862.57 7002.74 4869.53 6995.7 4878.62 6990.88C4887.9 6986.07 4898.42 6983.66 4910.19 6983.66C4923.57 6983.66 4935.16 6986.96 4944.97 6993.56C4954.96 7000.16 4961.56 7010.15 4964.77 7023.52L4951.66 7018.98C4956.3 7008.27 4963.97 6999.71 4974.67 6993.29C4985.37 6986.87 4997.77 6983.66 5011.86 6983.66ZM5293.52 6983.66C5304.93 6983.66 5315.01 6985.89 5323.75 6990.35C5332.67 6994.81 5339.62 7001.67 5344.62 7010.95C5349.61 7020.05 5352.11 7031.82 5352.11 7046.27V7128.13H5318.67V7050.55C5318.67 7037.88 5315.9 7028.43 5310.37 7022.19C5304.84 7015.94 5296.91 7012.82 5286.56 7012.82C5279.25 7012.82 5272.74 7014.43 5267.03 7017.64C5261.5 7020.85 5257.13 7025.57 5253.92 7031.82C5250.89 7038.06 5249.37 7046 5249.37 7055.63V7128.13H5215.93V7050.55C5215.93 7037.88 5213.16 7028.43 5207.63 7022.19C5202.11 7015.94 5194.17 7012.82 5183.82 7012.82C5176.51 7012.82 5170 7014.43 5164.29 7017.64C5158.76 7020.85 5154.39 7025.57 5151.18 7031.82C5148.15 7038.06 5146.63 7046 5146.63 7055.63V7128.13H5113.19V6985.26H5145.03V7023.26L5139.41 7012.02C5144.23 7002.74 5151.18 6995.7 5160.28 6990.88C5169.55 6986.07 5180.08 6983.66 5191.85 6983.66C5205.23 6983.66 5216.82 6986.96 5226.63 6993.56C5236.62 7000.16 5243.22 7010.15 5246.43 7023.52L5233.32 7018.98C5237.96 7008.27 5245.63 6999.71 5256.33 6993.29C5267.03 6986.87 5279.43 6983.66 5293.52 6983.66ZM5455.31 7130.01C5443.18 7130.01 5432.48 7127.78 5423.21 7123.32C5413.93 7118.68 5406.71 7111.73 5401.54 7102.45C5396.36 7093 5393.78 7081.14 5393.78 7066.87V6985.26H5427.22V7062.32C5427.22 7075.16 5430.07 7084.79 5435.78 7091.21C5441.67 7097.46 5449.96 7100.58 5460.66 7100.58C5468.51 7100.58 5475.29 7098.97 5481 7095.76C5486.88 7092.55 5491.43 7087.74 5494.64 7081.31C5498.03 7074.89 5499.73 7066.96 5499.73 7057.5V6985.26H5533.17V7128.13H5501.33V7089.61L5506.95 7101.38C5502.13 7110.65 5495.09 7117.79 5485.81 7122.78C5476.54 7127.6 5466.37 7130.01 5455.31 7130.01ZM5658.02 6983.66C5669.44 6983.66 5679.61 6985.89 5688.52 6990.35C5697.62 6994.81 5704.76 7001.67 5709.93 7010.95C5715.1 7020.05 5717.69 7031.82 5717.69 7046.27V7128.13H5684.24V7050.55C5684.24 7037.88 5681.21 7028.43 5675.15 7022.19C5669.26 7015.94 5660.97 7012.82 5650.26 7012.82C5642.42 7012.82 5635.46 7014.43 5629.4 7017.64C5623.33 7020.85 5618.6 7025.66 5615.22 7032.09C5612.01 7038.33 5610.4 7046.27 5610.4 7055.9V7128.13H5576.96V6985.26H5608.79V7023.79L5603.18 7012.02C5608.17 7002.92 5615.39 6995.97 5624.85 6991.15C5634.48 6986.16 5645.54 6983.66 5658.02 6983.66ZM5760.11 7128.13V6985.26H5793.56V7128.13H5760.11ZM5776.97 6961.72C5770.72 6961.72 5765.55 6959.76 5761.45 6955.83C5757.53 6951.91 5755.56 6947.18 5755.56 6941.65C5755.56 6935.95 5757.53 6931.22 5761.45 6927.47C5765.55 6923.55 5770.72 6921.59 5776.97 6921.59C5783.21 6921.59 5788.29 6923.46 5792.22 6927.21C5796.32 6930.77 5798.37 6935.32 5798.37 6940.85C5798.37 6946.74 5796.41 6951.73 5792.49 6955.83C5788.56 6959.76 5783.39 6961.72 5776.97 6961.72ZM5903 7130.01C5888.02 7130.01 5874.64 7126.89 5862.87 7120.64C5851.27 7114.22 5842.18 7105.48 5835.58 7094.42C5828.98 7083.37 5825.68 7070.79 5825.68 7056.7C5825.68 7042.43 5828.98 7029.86 5835.58 7018.98C5842.18 7007.92 5851.27 6999.27 5862.87 6993.02C5874.64 6986.78 5888.02 6983.66 5903 6983.66C5916.91 6983.66 5929.13 6986.51 5939.65 6992.22C5950.35 6997.75 5958.47 7005.95 5964 7016.83L5938.32 7031.82C5934.03 7025.04 5928.77 7020.05 5922.53 7016.83C5916.47 7013.62 5909.87 7012.02 5902.73 7012.02C5894.53 7012.02 5887.12 7013.8 5880.53 7017.37C5873.93 7020.94 5868.75 7026.11 5865.01 7032.89C5861.26 7039.49 5859.39 7047.42 5859.39 7056.7C5859.39 7065.97 5861.26 7074 5865.01 7080.78C5868.75 7087.38 5873.93 7092.46 5880.53 7096.03C5887.12 7099.6 5894.53 7101.38 5902.73 7101.38C5909.87 7101.38 5916.47 7099.77 5922.53 7096.56C5928.77 7093.35 5934.03 7088.36 5938.32 7081.58L5964 7096.56C5958.47 7107.27 5950.35 7115.56 5939.65 7121.45C5929.13 7127.15 5916.91 7130.01 5903 7130.01ZM6080.93 7128.13V7099.24L6079.06 7093.09V7042.52C6079.06 7032.71 6076.12 7025.13 6070.23 7019.78C6064.34 7014.25 6055.43 7011.48 6043.48 7011.48C6035.45 7011.48 6027.51 7012.73 6019.66 7015.23C6011.99 7017.73 6005.48 7021.2 6000.13 7025.66L5987.02 7001.32C5994.69 6995.43 6003.79 6991.06 6014.31 6988.21C6025.02 6985.18 6036.07 6983.66 6047.49 6983.66C6068.18 6983.66 6084.14 6988.65 6095.38 6998.64C6106.8 7008.45 6112.5 7023.7 6112.5 7044.39V7128.13H6080.93ZM6035.98 7130.01C6025.28 7130.01 6015.92 7128.22 6007.89 7124.66C5999.87 7120.91 5993.62 7115.83 5989.16 7109.41C5984.88 7102.81 5982.74 7095.4 5982.74 7087.2C5982.74 7079.17 5984.62 7071.95 5988.36 7065.53C5992.29 7059.11 5998.62 7054.02 6007.36 7050.28C6016.1 7046.53 6027.69 7044.66 6042.14 7044.66H6083.61V7066.87H6044.55C6033.13 7066.87 6025.46 7068.74 6021.54 7072.48C6017.61 7076.05 6015.65 7080.51 6015.65 7085.86C6015.65 7091.93 6018.06 7096.74 6022.87 7100.31C6027.69 7103.88 6034.38 7105.66 6042.94 7105.66C6051.15 7105.66 6058.46 7103.79 6064.88 7100.04C6071.48 7096.3 6076.21 7090.77 6079.06 7083.45L6084.68 7103.52C6081.47 7111.9 6075.67 7118.41 6067.29 7123.05C6059.08 7127.69 6048.65 7130.01 6035.98 7130.01ZM6209.2 7130.01C6193.5 7130.01 6181.38 7125.99 6172.81 7117.97C6164.25 7109.76 6159.97 7097.72 6159.97 7081.85V6953.69H6193.42V7081.05C6193.42 7087.82 6195.11 7093.09 6198.5 7096.83C6202.07 7100.58 6206.97 7102.45 6213.21 7102.45C6220.71 7102.45 6226.95 7100.49 6231.94 7096.56L6241.31 7120.38C6237.38 7123.59 6232.57 7125.99 6226.86 7127.6C6221.15 7129.2 6215.27 7130.01 6209.2 7130.01ZM6136.43 7013.09V6986.33H6231.67V7013.09H6136.43ZM6268.82 7128.13V6985.26H6302.26V7128.13H6268.82ZM6285.67 6961.72C6279.43 6961.72 6274.26 6959.76 6270.16 6955.83C6266.23 6951.91 6264.27 6947.18 6264.27 6941.65C6264.27 6935.95 6266.23 6931.22 6270.16 6927.47C6274.26 6923.55 6279.43 6921.59 6285.67 6921.59C6291.92 6921.59 6297 6923.46 6300.92 6927.21C6305.03 6930.77 6307.08 6935.32 6307.08 6940.85C6307.08 6946.74 6305.12 6951.73 6301.19 6955.83C6297.27 6959.76 6292.09 6961.72 6285.67 6961.72ZM6410.37 7130.01C6395.74 7130.01 6382.72 7126.89 6371.31 7120.64C6359.89 7114.22 6350.88 7105.48 6344.28 7094.42C6337.68 7083.37 6334.38 7070.79 6334.38 7056.7C6334.38 7042.43 6337.68 7029.86 6344.28 7018.98C6350.88 7007.92 6359.89 6999.27 6371.31 6993.02C6382.72 6986.78 6395.74 6983.66 6410.37 6983.66C6425.17 6983.66 6438.28 6986.78 6449.7 6993.02C6461.29 6999.27 6470.3 7007.83 6476.72 7018.71C6483.32 7029.59 6486.62 7042.25 6486.62 7056.7C6486.62 7070.79 6483.32 7083.37 6476.72 7094.42C6470.3 7105.48 6461.29 7114.22 6449.7 7120.64C6438.28 7126.89 6425.17 7130.01 6410.37 7130.01ZM6410.37 7101.38C6418.57 7101.38 6425.89 7099.6 6432.31 7096.03C6438.73 7092.46 6443.72 7087.29 6447.29 7080.51C6451.03 7073.73 6452.91 7065.8 6452.91 7056.7C6452.91 7047.42 6451.03 7039.49 6447.29 7032.89C6443.72 7026.11 6438.73 7020.94 6432.31 7017.37C6425.89 7013.8 6418.66 7012.02 6410.64 7012.02C6402.43 7012.02 6395.12 7013.8 6388.7 7017.37C6382.45 7020.94 6377.46 7026.11 6373.71 7032.89C6369.97 7039.49 6368.1 7047.42 6368.1 7056.7C6368.1 7065.8 6369.97 7073.73 6373.71 7080.51C6377.46 7087.29 6382.45 7092.46 6388.7 7096.03C6395.12 7099.6 6402.34 7101.38 6410.37 7101.38ZM6599.67 6983.66C6611.08 6983.66 6621.25 6985.89 6630.17 6990.35C6639.26 6994.81 6646.4 7001.67 6651.57 7010.95C6656.74 7020.05 6659.33 7031.82 6659.33 7046.27V7128.13H6625.89V7050.55C6625.89 7037.88 6622.85 7028.43 6616.79 7022.19C6610.9 7015.94 6602.61 7012.82 6591.91 7012.82C6584.06 7012.82 6577.1 7014.43 6571.04 7017.64C6564.97 7020.85 6560.25 7025.66 6556.86 7032.09C6553.65 7038.33 6552.04 7046.27 6552.04 7055.9V7128.13H6518.6V6985.26H6550.44V7023.79L6544.82 7012.02C6549.81 7002.92 6557.04 6995.97 6566.49 6991.15C6576.12 6986.16 6587.18 6983.66 6599.67 6983.66Z" fill="#3D3D3D"/>
<circle cx="7505.21" cy="4493.5" r="620.64" fill="url(#paint2_linear_442_138)"/>
<path d="M7401.58 4166.28C7520.41 4073.94 7685.07 4167.3 7685.07 4308.59C7685.07 4402.08 7627.75 4451 7606.86 4469.8L7541.88 4397.58C7561.26 4380.13 7587.92 4356.56 7587.92 4308.59C7587.92 4241.23 7510.82 4204.43 7461.2 4242.99C7437.85 4261.13 7430.04 4283 7429.86 4303.69C7429.66 4326.38 7438.74 4346.48 7447.79 4356.43L7447.88 4356.53L7447.97 4356.63L7589.58 4514.22L7589 4514.74L7634.59 4565.48C7660.87 4594.51 7677.99 4638.53 7677.59 4684.21C7677.16 4732 7657.48 4782.87 7608.72 4820.76C7489.89 4913.1 7325.23 4819.74 7325.23 4678.45C7325.23 4584.96 7382.55 4536.05 7403.44 4517.25L7468.43 4589.46C7449.04 4606.91 7422.38 4630.49 7422.38 4678.45C7422.38 4745.82 7499.48 4782.61 7549.1 4744.05C7572.45 4725.91 7580.26 4704.04 7580.44 4683.35C7580.64 4660.66 7571.56 4640.57 7562.51 4630.62L7562.42 4630.52L7562.33 4630.41L7420.71 4472.83L7421.3 4472.3L7375.71 4421.57C7349.43 4392.53 7332.31 4348.51 7332.71 4302.83C7333.14 4255.05 7352.82 4204.18 7401.58 4166.28Z" fill="white"/>
</g>
<defs>
<linearGradient id="paint0_linear_442_138" x1="2971.07" y1="2577.75" x2="3297.39" y2="1037.19" gradientUnits="userSpaceOnUse">
<stop stop-color="#FFBF0B"/>
<stop offset="0.91779" stop-color="#FD1782"/>
</linearGradient>
<linearGradient id="paint1_linear_442_138" x1="2979.48" y1="6568.73" x2="3305.8" y2="5028.17" gradientUnits="userSpaceOnUse">
<stop stop-color="#FFBF0B"/>
<stop offset="0.91779" stop-color="#FD1782"/>
</linearGradient>
<linearGradient id="paint2_linear_442_138" x1="7180.11" y1="4976.22" x2="7859.86" y2="4050.19" gradientUnits="userSpaceOnUse">
<stop stop-color="#FFBF0B"/>
<stop offset="0.91779" stop-color="#FD1782"/>
</linearGradient>
<clipPath id="clip0_442_138">
<rect width="8503.95" height="7939.82" fill="white"/>
</clipPath>
</defs>
</svg>
