<?xml version="1.0" encoding="UTF-8"?>
<svg id="Layer_2" data-name="Layer 2" xmlns="http://www.w3.org/2000/svg" xmlns:xlink="http://www.w3.org/1999/xlink" viewBox="0 0 516 56">
  <defs>
    <style>
      .cls-1 {
        fill: url(#linear-gradient);
      }

      .cls-1, .cls-2, .cls-3 {
        stroke-width: 0px;
      }

      .cls-2 {
        fill: #000;
      }

      .cls-3 {
        fill: url(#linear-gradient-2);
        fill-rule: evenodd;
      }
    </style>
    <linearGradient id="linear-gradient" x1="232.87" y1="-582.14" x2="292.87" y2="-634.14" gradientTransform="translate(0 -578) scale(1 -1)" gradientUnits="userSpaceOnUse">
      <stop offset="0" stop-color="#a605b6"/>
      <stop offset=".3" stop-color="#f47934"/>
      <stop offset=".42" stop-color="#fbb328"/>
      <stop offset=".7" stop-color="#ef513c"/>
      <stop offset="1" stop-color="#9f0984"/>
    </linearGradient>
    <linearGradient id="linear-gradient-2" x1="281.04" y1="-594.87" x2="314.97" y2="-616.99" gradientTransform="translate(0 -578) scale(1 -1)" gradientUnits="userSpaceOnUse">
      <stop offset="0" stop-color="#a605b6"/>
      <stop offset=".45" stop-color="#ef513c"/>
      <stop offset="1" stop-color="#9f0984"/>
    </linearGradient>
  </defs>
  <g id="Layer_1-2" data-name="Layer 1">
    <g>
      <path class="cls-2" d="M62.9.03v15.39H15.75c-.22,0-.4.18-.4.4v4.14c.02.08.14.17.4.17h31.39c8.68,0,15.75,7.09,15.75,15.79v4.14c0,8.7-7.07,15.79-15.75,15.79H.36v-15.39h46.78c.22,0,.4-.18.4-.4v-4.14c0-.23-.18-.4-.4-.4H15.75c-8.83,0-15.75-6.84-15.75-15.56v-4.14C0,7.11,7.07.03,15.75.03h47.15Z"/>
      <path class="cls-2" d="M97.51.03h41.09v15.39h-41.09c-3,0-5.52,2.1-6.18,4.9h39.65v15.39h-39.65c.66,2.81,3.18,4.91,6.18,4.91h41.09v15.39h-41.09c-11.97,0-21.71-9.75-21.71-21.76v-12.46C75.8,9.78,85.53.03,97.51.03Z"/>
      <path class="cls-2" d="M172.91.03h41.09v15.39h-41.09c-3,0-5.52,2.1-6.18,4.9h39.65v15.39h-39.65c.66,2.81,3.18,4.91,6.18,4.91h41.09v15.39h-41.09c-11.97,0-21.71-9.75-21.71-21.76v-12.46C151.2,9.78,160.94.03,172.91.03Z"/>
      <path class="cls-2" d="M444.53,16.67v9.73c0,9.18-7.44,16.64-16.6,16.64h-31.35v12.78h-15.35V0h15.35v.03h31.35c9.16,0,16.6,7.46,16.6,16.64ZM429.18,16.67c0-.69-.56-1.25-1.25-1.25h-30.85v12.23h30.85c.69,0,1.25-.56,1.25-1.25v-9.73Z"/>
      <path class="cls-2" d="M499.03,8.77l16.97,47.04h-16.32l-2.3-6.39h-29.19l-2.3,6.39h-16.32l16.97-47.04c1.89-5.21,6.87-8.72,12.41-8.72h7.69c5.54,0,10.53,3.5,12.41,8.72h0ZM491.83,34.03l-6.72-18.6h-4.67l-6.71,18.6h18.1Z"/>
      <path class="cls-1" d="M272.67,29.29c-.61-.17-1.03-.73-1.03-1.36s.42-1.19,1.03-1.36c2.4-.66,4.71-1.61,6.88-2.8L292.62.1h-17.54l-8.91,16.18c-1.54,2.45-4.29,3.97-7.17,3.97h-15.44V.1h-15.35v55.82h15.35v-20.29h15.44c2.89,0,5.63,1.51,7.17,3.97l8.99,16.32h17.54l-13.14-23.83c-2.17-1.19-4.48-2.14-6.88-2.8Z"/>
      <path class="cls-3" d="M297.38,12.65c.08-.28.34-.47.63-.47h0c.29,0,.55.2.63.48l.91,3.2c.77,2.72,2.26,5.21,4.31,7.22,2.05,2,4.62,3.46,7.42,4.23.28.07.48.33.48.63s-.19.55-.48.63c-2.8.76-5.36,2.22-7.42,4.23-2.05,2-3.54,4.5-4.31,7.22l-.91,3.19c-.08.28-.34.47-.63.47s-.55-.19-.63-.47l-.91-3.19c-.78-2.73-2.27-5.22-4.33-7.23-2.06-2-4.63-3.46-7.43-4.23-.28-.07-.48-.33-.48-.63s.19-.55.48-.63c2.81-.75,5.38-2.21,7.43-4.22,2.05-2,3.55-4.51,4.33-7.23l.91-3.2Z"/>
      <path class="cls-2" d="M352.76,8.77c-1.88-5.22-6.87-8.72-12.41-8.72h-7.69c-5.54,0-10.52,3.51-12.41,8.72l-5.13,14.24c2.54,1.56,5.29,2.76,8.18,3.57.61.17,1.03.73,1.03,1.36s-.42,1.19-1.03,1.36c-4.87,1.35-9.35,3.85-13.06,7.24l-6.95,19.27h16.32l2.3-6.39h29.19l2.3,6.39h16.32l-16.97-47.04h0ZM327.46,34.03l6.71-18.6h4.67l6.72,18.6h-18.1Z"/>
    </g>
  </g>
</svg>